<?xml version="1.0" encoding="utf-8"?>
<!-- Generator: Adobe Illustrator 26.0.3, SVG Export Plug-In . SVG Version: 6.00 Build 0)  -->
<svg version="1.1" id="圖層_1" xmlns="http://www.w3.org/2000/svg" xmlns:xlink="http://www.w3.org/1999/xlink" x="0px" y="0px"
	 viewBox="0 0 32 32" style="enable-background:new 0 0 32 32;" xml:space="preserve">
<style type="text/css">
	.st0{fill:#FFB502;}
</style>
<path class="st0" d="M15.9,0c-0.6,0.2-1.1,0.8-1.1,1.5v2.7c0,0.6,0.6,1.3,1.3,1.3c0.8,0,1.3-0.6,1.3-1.3l0,0V1.5
	C17.5,0.6,16.9,0,16.1,0C16.1,0,16.1,0,15.9,0z M5.5,4.3C4.7,4.5,4.3,5.1,4.3,6c0.2,0.2,0.3,0.5,0.5,0.6l1.9,1.9
	C7.1,9,8,9.2,8.5,8.7c0.6-0.5,0.6-1.3,0.2-1.9L8.5,6.6L6.8,4.7c-0.3-0.2-0.6-0.3-1-0.3C5.6,4.3,5.6,4.3,5.5,4.3
	C5.6,4.3,5.5,4.3,5.5,4.3z M26.4,4.3c-0.3,0-0.6,0.2-0.8,0.5l-1.9,1.9C23,7.2,23,8,23.5,8.7s1.3,0.6,1.9,0.2l0.2-0.2l1.9-1.9
	c0.5-0.5,0.5-1.3,0-1.9C27.2,4.5,26.9,4.3,26.4,4.3C26.5,4.3,26.4,4.3,26.4,4.3z M16.1,6.8c-5.1,0-9.3,4.2-9.3,9.3s4.2,9.3,9.3,9.3
	s9.3-4.2,9.3-9.3S21.2,6.8,16.1,6.8z M16.1,9.5c3.7,0,6.6,3.1,6.6,6.6s-3.1,6.6-6.6,6.6s-6.6-2.9-6.6-6.6S12.5,9.5,16.1,9.5z
	 M1.3,14.8c-0.8,0-1.3,0.6-1.3,1.4c0,0.8,0.6,1.3,1.5,1.3h2.7c0.8,0,1.3-0.6,1.3-1.3S5,14.8,4.2,14.8l0,0H1.5
	C1.5,14.8,1.5,14.8,1.3,14.8L1.3,14.8z M27.8,14.8c-0.8,0-1.3,0.6-1.3,1.4c0,0.8,0.6,1.3,1.5,1.3h2.7c0.8,0,1.3-0.6,1.3-1.3
	c0-0.8-0.6-1.3-1.3-1.3l0,0H28C28.1,14.8,28,14.8,27.8,14.8C28,14.8,28,14.8,27.8,14.8z M7.4,23.3c-0.3,0-0.5,0.2-0.8,0.5l-1.8,1.8
	c-0.5,0.5-0.5,1.5,0,1.9s1.4,0.5,1.9,0l1.9-1.9c0.5-0.5,0.6-1.3,0-1.9C8.4,23.3,7.9,23.2,7.4,23.3z M24.4,23.3
	c-0.8,0.2-1.1,0.8-1.1,1.6c0,0.3,0.2,0.5,0.5,0.8l1.9,1.9c0.5,0.5,1.5,0.5,1.9,0s0.5-1.5,0-1.9L25.7,24
	C25.2,23.5,24.9,23.3,24.4,23.3L24.4,23.3z M15.9,26.7c-0.6,0.2-1.1,0.6-1.1,1.3v2.7c0,0.8,0.6,1.3,1.3,1.3c0.8,0,1.3-0.6,1.3-1.3
	l0,0V28c0-0.8-0.6-1.3-1.3-1.3C16.1,26.7,16.1,26.7,15.9,26.7z"/>
</svg>
