<?xml version="1.0" encoding="utf-8"?>
<!-- Generator: Adobe Illustrator 26.0.3, SVG Export Plug-In . SVG Version: 6.00 Build 0)  -->
<svg version="1.1" id="圖層_1" xmlns="http://www.w3.org/2000/svg" xmlns:xlink="http://www.w3.org/1999/xlink" x="0px" y="0px"
	 viewBox="0 0 32 32" style="enable-background:new 0 0 32 32;" xml:space="preserve">
<style type="text/css">
	.st0{fill-rule:evenodd;clip-rule:evenodd;fill:#FFFFFF;}
</style>
<g>
	<g>
		<path class="st0" d="M7.5,4.6c-1.6,0-2.9,1.3-2.9,2.9s1.3,2.9,2.9,2.9s2.9-1.3,2.9-2.9S9,4.6,7.5,4.6z M16,4.6
			c-1.6,0-2.9,1.3-2.9,2.9s1.3,2.9,2.9,2.9s2.9-1.3,2.9-2.9S17.6,4.6,16,4.6z M24.6,10.3c1.6,0,2.9-1.3,2.9-2.9s-1.3-2.9-2.9-2.9
			s-2.9,1.3-2.9,2.9S23,10.3,24.6,10.3z M7.5,13.1c-1.6,0-2.9,1.3-2.9,2.9s1.3,2.9,2.9,2.9s2.9-1.3,2.9-2.9S9,13.1,7.5,13.1z
			 M16,13.1c-1.6,0-2.9,1.3-2.9,2.9s1.3,2.9,2.9,2.9s2.9-1.3,2.9-2.9S17.6,13.1,16,13.1z M24.6,13.1c-1.6,0-2.9,1.3-2.9,2.9
			s1.3,2.9,2.9,2.9s2.9-1.3,2.9-2.9S26.2,13.1,24.6,13.1z M7.5,21.7c-1.6,0-2.9,1.3-2.9,2.9s1.3,2.9,2.9,2.9s2.9-1.3,2.9-2.9
			S9,21.7,7.5,21.7z M16,21.7c-1.6,0-2.9,1.3-2.9,2.9s1.3,2.9,2.9,2.9s2.9-1.3,2.9-2.9S17.6,21.7,16,21.7z M24.6,21.7
			c-1.6,0-2.9,1.3-2.9,2.9s1.3,2.9,2.9,2.9s2.9-1.3,2.9-2.9S26.2,21.7,24.6,21.7z"/>
	</g>
</g>
</svg>
