<?xml version="1.0" encoding="utf-8"?>
<!-- Generator: Adobe Illustrator 26.0.3, SVG Export Plug-In . SVG Version: 6.00 Build 0)  -->
<svg version="1.1" id="圖層_1" xmlns="http://www.w3.org/2000/svg" xmlns:xlink="http://www.w3.org/1999/xlink" x="0px" y="0px"
	 viewBox="0 0 32 32" style="enable-background:new 0 0 32 32;" xml:space="preserve">
<style type="text/css">
	.st0{fill:#336699;}
</style>
<path class="st0" d="M30.2,8.1c-0.5-1-1.2-1.6-2.1-1.9c-0.6-0.1-1.2-0.1-1.9,0.1c0-0.5,0-1,0-1.5V3.9H5.9v0.9c0,0.5,0,1,0,1.5
	C5.2,6,4.6,6,4,6.1C3.1,6.4,2.4,7,1.8,8c-0.5,1-0.5,2.1,0,3.2c1,2.4,3.8,4.5,6,5.4c1,1.5,2.5,2.6,4.5,3.1c0.6,0.2,1,0.7,1,1.2
	c0,0.4-0.2,1.7-0.7,2.1H11c-1.1,0-2,0.9-2,2v3h13.8v-3c0-1.1-0.9-2-2-2h-1.7c-0.5-0.3-0.7-1.6-0.7-2.1s0.4-1,1-1.2
	c2-0.6,3.4-1.6,4.5-3.1c2.3-0.9,5-3,6-5.4C30.6,10.2,30.6,9,30.2,8.1z M21.2,26.3H10.8V25c0-0.2,0.1-0.3,0.3-0.3h9.8
	c0.2,0,0.3,0.1,0.3,0.3V26.3z M16.9,21c0,0.3,0.1,1.6,0.2,2.1h-2.3C15,22.6,15,21.3,15,21c0-1.3-0.9-2.4-2.3-2.8
	c-4.7-1.6-5.2-6-5.2-12.6h16.9c-0.1,6.6-0.5,11-5.3,12.5C17.8,18.6,16.9,19.7,16.9,21z M6.7,14.1C5.4,13.2,4,12,3.4,10.6
	c-0.3-0.7-0.3-1.3,0-1.9c0.3-0.5,0.6-0.9,1-1c0.1,0,0.2-0.1,0.3-0.1c0.5,0,0.9,0.2,1.2,0.3C6,10.7,6.3,12.6,6.7,14.1z M28.6,10.6
	c-0.6,1.4-2,2.6-3.3,3.5c0.5-1.5,0.8-3.4,0.8-6c0.3-0.2,1-0.4,1.5-0.3c0.4,0.1,0.7,0.4,1,1C28.9,9.3,28.9,9.9,28.6,10.6z"/>
</svg>
