<?xml version="1.0" encoding="utf-8"?>
<!-- Generator: Adobe Illustrator 26.0.3, SVG Export Plug-In . SVG Version: 6.00 Build 0)  -->
<svg version="1.1" id="圖層_1" xmlns="http://www.w3.org/2000/svg" xmlns:xlink="http://www.w3.org/1999/xlink" x="0px" y="0px"
	 viewBox="0 0 32 32" style="enable-background:new 0 0 32 32;" xml:space="preserve">
<style type="text/css">
	.st0{fill:#336699;}
	.st1{fill-rule:evenodd;clip-rule:evenodd;fill:#336699;}
</style>
<rect x="17.1" y="2.8" class="st0" width="1.9" height="2.5"/>
<rect x="28.2" y="14.5" class="st0" width="2.5" height="1.9"/>
<g>
	<path class="st1" d="M0.1,12.3c0-0.2,0.1-0.3,0.1-0.5c0.1-0.5,0.3-1,0.7-1.4c0.5-0.5,1.1-1,1.6-1.5c0.9-0.7,2-0.7,2.9,0
		c1.1,0.9,1.9,1.9,2.4,3.2c0.4,1.1,0.1,1.8-0.6,2.6C7,15,6.7,15.3,6.4,15.6C6.1,16,6,16.4,6.1,16.8c0.2,0.7,0.6,1.4,1.1,2
		c1.4,1.8,2.9,3.3,4.6,4.8c0.7,0.6,1.5,1.2,2.4,1.6c0.7,0.3,1.1,0.2,1.6-0.3c0.3-0.3,0.5-0.5,0.8-0.8c0.8-0.7,1.7-0.9,2.7-0.4
		c0.5,0.3,1,0.5,1.5,0.9s1,0.8,1.4,1.3c0.5,0.5,0.7,1.2,0.6,1.9c-0.1,0.6-0.4,1-0.8,1.5c-0.5,0.5-1,1.1-1.6,1.6
		c-0.4,0.3-0.9,0.5-1.4,0.5c-0.2,0-0.3,0-0.5,0h-0.1c-0.4,0-0.7-0.1-1.1-0.1c-1.3-0.2-2.5-0.7-3.6-1.3c-1.6-0.8-3.2-1.8-4.6-3
		c-1-0.8-2-1.7-2.9-2.7c-0.9-0.9-1.6-1.8-2.4-2.8s-1.5-2.1-2.1-3.2c-0.6-1.2-1.2-2.4-1.5-3.7C0.1,14.1,0,13.5-0.1,13
		C0.1,12.8,0.1,12.5,0.1,12.3z"/>
	<path class="st1" d="M31.9,16.3c-0.1,0.5-0.1,1.1-0.2,1.6c-0.2,1.7-0.8,3.3-1.6,4.7c-0.8,1.5-1.9,2.8-3.2,3.9
		c-0.7,0.6-1.5,1.2-2.4,1.6c0.2-0.8,0.1-1.5-0.2-2.2c0.4-0.3,0.8-0.6,1.2-0.9c0.9-0.7,1.6-1.5,2.3-2.5c0.7-0.9,1.2-2,1.5-3.1
		c0.2-0.7,0.4-1.5,0.5-2.2c0-0.2-0.1-0.2-0.2-0.3c-0.7-0.4-1.4-0.8-2-1.2c-0.1,0-0.1-0.1-0.2-0.1c0.4-0.2,0.8-0.5,1.1-0.7
		c0.4-0.2,0.8-0.4,1.1-0.7c0.1,0,0.1-0.2,0.1-0.3c-0.2-1.5-0.6-2.9-1.4-4.2c-0.7-1.3-1.6-2.4-2.8-3.4c-0.7-0.6-1.5-1.1-2.3-1.5
		c-0.9-0.5-1.9-0.8-2.9-1.1c-0.3-0.1-0.7-0.1-1-0.2c-0.1,0-0.2,0-0.3,0.1c-0.4,0.7-0.8,1.4-1.3,2.1c0,0-0.1,0.1-0.1,0.2
		c-0.4-0.7-0.9-1.4-1.3-2.1c-0.1-0.2-0.3-0.3-0.5-0.3c-2.1,0.3-4,1.1-5.7,2.5C9.3,6.8,8.5,7.6,7.9,8.6C7.8,8.7,7.7,8.8,7.7,8.9
		C7.2,8.4,6.7,8,6.2,7.5c0.2-0.3,0.4-0.6,0.7-0.9c0.6-0.7,1.3-1.3,1.9-1.9C9.5,4,10.4,3.4,11.3,3c1-0.5,2.1-0.9,3.2-1.2
		c0.9-0.2,1.9-0.4,2.8-0.3c0.1,0,0.2,0,0.3,0c0.1,0,0.1,0,0.2,0c0.4,0,0.9,0.1,1.3,0.1c1,0.1,2,0.3,2.9,0.6c1.5,0.5,2.9,1.2,4.1,2.1
		c1.1,0.8,2.1,1.8,2.9,2.9c0.6,0.8,1.1,1.7,1.6,2.7c0.5,1.2,0.9,2.3,1.1,3.6c0.1,0.5,0.1,1,0.2,1.5C31.9,15.3,31.9,15.8,31.9,16.3z"
		/>
	<path class="st1" d="M13.6,17.1c1.1,0,2.2,0,3.3,0c0,0.6,0,1.1,0,1.6c-1.8,0-3.6,0-5.4,0c-0.2-0.9-0.1-1.8,0.5-2.6
		c0.4-0.6,1-1,1.5-1.4c0.3-0.2,0.7-0.5,1-0.7c0.4-0.4,0.5-0.9,0.2-1.2s-0.8-0.3-1.1-0.1c-0.1,0.1-0.3,0.2-0.4,0.3
		c-0.1,0.1-0.2,0.2-0.3,0.4c-0.5-0.3-0.9-0.6-1.4-0.9c0.3-0.6,0.8-1.1,1.4-1.4c1.1-0.5,2.2-0.4,3.2,0.3c0.7,0.5,1,1.5,0.8,2.3
		c-0.2,0.7-0.6,1.3-1.1,1.7s-1,0.7-1.5,1C13.8,16.6,13.6,16.8,13.6,17.1z"/>
	<path class="st1" d="M23.1,10.8c0,0.1,0,0.2,0,0.3c0,1.2,0,2.3,0,3.5c0,0.6,0,0.6,0.6,0.6c0.1,0,0.2,0,0.4,0c0,0.5,0,1,0,1.4
		c0,0-0.1,0.1-0.2,0.1c-0.2,0-0.4,0-0.6,0s-0.2,0.1-0.2,0.2c0,0.5,0,0.9,0,1.4c0,0.1,0,0.2,0,0.3c-0.6,0-1.2,0-1.9,0
		c0-0.6,0-1.2,0-1.9c-0.1,0-0.2,0-0.3,0c-1,0-2,0-2.9,0c-0.2,0-0.3-0.1-0.3-0.3c-0.1-0.7,0.2-1.2,0.5-1.7c0.8-1.3,1.6-2.6,2.4-3.8
		c0-0.1,0.1-0.1,0.2-0.1C21.6,10.8,22.4,10.8,23.1,10.8z M21.3,12.7c-0.5,0.8-1,1.6-1.6,2.5c0.5,0,1,0,1.6,0
		C21.3,14.3,21.3,13.5,21.3,12.7z"/>
</g>
</svg>
