<?xml version="1.0" encoding="utf-8"?>
<!-- Generator: Adobe Illustrator 26.0.3, SVG Export Plug-In . SVG Version: 6.00 Build 0)  -->
<svg version="1.1" id="圖層_1" xmlns="http://www.w3.org/2000/svg" xmlns:xlink="http://www.w3.org/1999/xlink" x="0px" y="0px"
	 viewBox="0 0 55 55" style="enable-background:new 0 0 55 55;" xml:space="preserve">
<style type="text/css">
	.st0{fill:#336699;}
</style>
<path class="st0" d="M34.8,41.7c-0.5,0-1-0.3-1.3-0.8c-0.4-0.7-0.1-1.6,0.6-1.9c0.3-0.1,7-3.7,7-11.5s-6.8-11.4-7-11.6
	c-0.7-0.4-1-1.2-0.6-1.9s1.2-1,1.9-0.6C35.8,13.6,44,18,44,27.5c0,9.6-8.2,13.9-8.6,14.1C35.2,41.7,35,41.7,34.8,41.7z"/>
<path class="st0" d="M41.7,47.4c-0.5,0-1-0.3-1.3-0.8c-0.3-0.7,0-1.6,0.7-1.9c0.4-0.2,10.6-5.3,10.6-17.2c0-12-10.5-16.9-10.6-17
	c-0.7-0.3-1-1.2-0.7-1.9s1.2-1,1.9-0.7c0.5,0.2,12.2,5.8,12.2,19.6c0,13.7-11.7,19.6-12.2,19.8C42.1,47.3,41.9,47.4,41.7,47.4z"/>
<path class="st0" d="M28.5,4.3c-1.7-1.2-3.4-0.4-4.2,0.2l-13,12.9H4c-1.4,0.1-3.5,1.1-3.5,3.7v12.7c0,1.4,1,3.6,3.6,3.6H11
	l12.9,12.7c0.3,0.5,1.2,1.2,2.5,1.2c0.3,0,0.7,0,1-0.1c1.8-0.5,2.5-2.3,2.6-3.4V7.4C30,7.2,30,5.5,28.5,4.3z M27.1,47.6
	c0,0.2-0.2,0.7-0.5,0.8s-0.4,0-0.6-0.2L13.9,36.3l-0.7-0.7l0,0l-0.3-0.3l0,0c-0.5-0.3-1.6-0.9-4.2-0.9H6H4c-0.2,0-0.7,0-0.7-0.8V21
	c0-0.2,0-0.7,0.7-0.8h4.3h0.9h1.1c1.5,0,2.9-1,2.9-1l0,0l3.4-3l9.5-9.6c0.3-0.2,0.5,0,0.6,0C27,6.9,27,7.3,27,7.3v40.3H27.1z"/>
</svg>
