<?xml version="1.0" encoding="utf-8"?>
<!-- Generator: Adobe Illustrator 26.0.3, SVG Export Plug-In . SVG Version: 6.00 Build 0)  -->
<svg version="1.1" id="圖層_1" xmlns="http://www.w3.org/2000/svg" xmlns:xlink="http://www.w3.org/1999/xlink" x="0px" y="0px"
	 viewBox="0 0 32 32" style="enable-background:new 0 0 32 32;" xml:space="preserve">
<style type="text/css">
	.st0{fill:#336699;}
	.st1{fill:#336699;stroke:#336699;stroke-width:0.78;stroke-miterlimit:10;}
</style>
<g>
	<g>
		<g>
			<rect x="14.5" y="22" class="st0" width="3" height="3"/>
		</g>
	</g>
	<g>
		<g>
			<path class="st0" d="M21.8,11.6c-0.7-3.2-4-5.2-7.2-4.4C11.9,7.8,9.9,10.3,10,13h3c0.2-1.7,1.6-2.8,3.3-2.7
				c1.7,0.2,2.8,1.6,2.7,3.3c-0.3,1.5-1.7,2.5-3.2,2.5c-0.8,0-1.3,0.6-1.3,1.3l0,0v3.2h3v-1.7C20.6,18,22.6,14.8,21.8,11.6z"/>
		</g>
	</g>
</g>
<g>
	<path class="st1" d="M16,2.3c7.6,0,13.7,6.1,13.7,13.7S23.6,29.7,16,29.7S2.3,23.6,2.3,16S8.4,2.3,16,2.3 M16,1C7.7,1,1,7.7,1,16
		s6.7,15,15,15s15-6.7,15-15S24.3,1,16,1L16,1z"/>
</g>
</svg>
