<?xml version="1.0" encoding="utf-8"?>
<!-- Generator: Adobe Illustrator 26.0.3, SVG Export Plug-In . SVG Version: 6.00 Build 0)  -->
<svg version="1.1" id="圖層_1" xmlns="http://www.w3.org/2000/svg" xmlns:xlink="http://www.w3.org/1999/xlink" x="0px" y="0px"
	 viewBox="0 0 32 32" style="enable-background:new 0 0 32 32;" xml:space="preserve">
<style type="text/css">
	.st0{fill:#336699;stroke:#336699;stroke-width:0.4;stroke-miterlimit:10;}
</style>
<g>
	<path class="st0" d="M15.9,30.8L5.1,20.9c-2.1-2-3.7-4.5-4.4-7.2c-0.5-2-0.3-3.1-0.3-3.4c0.5-5.2,4.2-8.9,8.9-8.9
		c2.6,0,5,1.2,6.6,3.2c1.7-2.1,4.2-3.2,6.8-3.2c4.7,0,8.4,3.8,8.9,9c0.1,0.4,0.2,1.6-0.3,3.4c-0.7,2.6-2.1,5.2-4.4,7.1L15.9,30.8z
		 M9.3,3c-3.7,0-6.7,3.1-7.1,7.4c0,0.2-0.2,1.2,0.2,2.8c0.7,2.3,2,4.6,3.9,6.4l9.7,8.8l9.9-8.8c2-1.8,3.2-3.9,3.8-6.4
		c0.4-1.7,0.3-2.6,0.2-2.7v-0.1C29.4,6.1,26.4,3,22.6,3c-2.4,0-4.8,1.3-6.1,3.5l-0.8,1.3L15,6.5C13.9,4.3,11.7,3,9.3,3z"/>
</g>
</svg>
