<?xml version="1.0" encoding="utf-8"?>
<!-- Generator: Adobe Illustrator 16.0.0, SVG Export Plug-In . SVG Version: 6.00 Build 0)  -->
<!DOCTYPE svg PUBLIC "-//W3C//DTD SVG 1.1//EN" "http://www.w3.org/Graphics/SVG/1.1/DTD/svg11.dtd">
<svg version="1.1" id="圖層_1" xmlns="http://www.w3.org/2000/svg" xmlns:xlink="http://www.w3.org/1999/xlink" x="0px" y="0px"
	 width="32px" height="32px" viewBox="0 0 32 32" enable-background="new 0 0 32 32" xml:space="preserve">
<g>
	<polygon fill="#FFFFFF" points="4.621,4.589 11.988,4.589 11.988,6.166 7.925,6.166 7.639,6.45 13.469,12.279 12.292,13.457 
		6.501,7.664 6.244,7.921 6.244,11.957 4.621,11.957 	"/>
	<polygon fill="#FFFFFF" points="27.379,4.599 27.379,11.966 25.803,11.966 25.803,7.902 25.52,7.619 19.691,13.447 18.512,12.27 
		24.303,6.478 24.047,6.221 20.012,6.221 20.012,4.599 	"/>
	<polygon fill="#FFFFFF" points="4.621,27.412 11.988,27.412 11.988,25.836 7.925,25.836 7.639,25.551 13.469,19.721 12.292,18.545 
		6.501,24.336 6.244,24.08 6.244,20.043 4.621,20.043 	"/>
	<polygon fill="#FFFFFF" points="27.379,27.402 27.379,20.035 25.803,20.035 25.803,24.1 25.52,24.383 19.691,18.555 18.512,19.732 
		24.303,25.521 24.047,25.777 20.012,25.777 20.012,27.402 	"/>
</g>
</svg>
