<?xml version="1.0" encoding="utf-8"?>
<!-- Generator: Adobe Illustrator 26.0.3, SVG Export Plug-In . SVG Version: 6.00 Build 0)  -->
<svg version="1.1" id="组_767" xmlns="http://www.w3.org/2000/svg" xmlns:xlink="http://www.w3.org/1999/xlink" x="0px" y="0px"
	 viewBox="0 0 32 32" style="enable-background:new 0 0 32 32;" xml:space="preserve">
<style type="text/css">
	.st0{fill:#336699;}
	.st1{fill:#336699;stroke:#336699;stroke-width:0.7;stroke-miterlimit:10;}
</style>
<path class="st0" d="M1.9,8.5C1.9,8.5,1.8,8.6,1.9,8.5L1.9,8.5C1.8,8.6,1.9,8.5,1.9,8.5z"/>
<g>
	<path class="st1" d="M16,1.8c7.8,0,14.2,6.4,14.2,14.2S23.8,30.2,16,30.2S1.8,23.8,1.8,16S8.2,1.8,16,1.8 M16,0.5
		C7.5,0.5,0.5,7.5,0.5,16s7,15.5,15.5,15.5s15.5-7,15.5-15.5S24.5,0.5,16,0.5L16,0.5z"/>
	<path class="st1" d="M7,27l9.4-9.7c0.1-0.1,0.1-0.2,0.2-0.3c0.1-0.1,0.2-0.3,0.2-0.4V1.8c-0.3,0-0.5,0-0.8,0s-0.5,0-0.8,0v13
		L3.4,9.3C3.2,9.8,3,10.2,2.8,10.7l12.4,5.7L5.9,26C6.2,26.4,6.6,26.8,7,27z"/>
</g>
</svg>
