<?xml version="1.0" encoding="utf-8"?>
<!-- Generator: Adobe Illustrator 26.0.3, SVG Export Plug-In . SVG Version: 6.00 Build 0)  -->
<svg version="1.1" id="圖層_1" xmlns="http://www.w3.org/2000/svg" xmlns:xlink="http://www.w3.org/1999/xlink" x="0px" y="0px"
	 viewBox="0 0 32 32" style="enable-background:new 0 0 32 32;" xml:space="preserve">
<style type="text/css">
	.st0{fill:#336699;}
	.st1{fill:#336699;stroke:#336699;stroke-width:0.5;stroke-miterlimit:10;}
</style>
<path class="st0" d="M14.9,25h2.7v-2.5c1.7-0.1,2.4-0.3,3.3-1.1c0.9-0.8,1.5-1.9,1.5-3.1c0-1-0.3-1.4-0.8-2
	c-0.9-0.9-2.4-1.5-4.5-1.9c-1.9-0.3-4.2-0.8-4-2.2c0.3-1.8,2.3-1.7,2.9-1.7c1.2,0,2.3,0.1,2.9,1.7h2.8c-0.5-2.5-2-3.2-4.4-3.5v-2
	h-2.5v2.2c-3.5,0.1-4.6,2.4-4.6,3.6c0,0.8,0.2,2.8,4.6,3.7c2.3,0.6,4.5,0.6,4.5,2.6c0,0.7-0.5,2.1-2.8,2.2c-1.7,0.1-3.9,0-4.2-2.3
	H9.5c0.4,2.9,2.5,4,5.3,4.2L14.9,25z"/>
<path class="st1" d="M31,5.9l-6.4-0.6v6.4l2.5-2.3c1.1,1.9,1.8,4.2,1.8,6.6c0,7.1-5.8,13-13,13c-1.3,0-2.5-0.2-3.7-0.5L11.7,30
	c1.4,0.4,2.8,0.7,4.3,0.7c3.9,0,7.5-1.6,10.3-4.3c2.8-2.8,4.3-6.4,4.3-10.3c0-2.8-0.8-5.4-2.2-7.7L31,5.9z"/>
<path class="st1" d="M3,16C3,8.8,8.9,3,16,3c2,0,4,0.5,5.6,1.3l0.7-1.4c-2-1-4.1-1.4-6.4-1.4C12.1,1.5,8.5,3,5.7,5.7
	S1.4,12.1,1.4,16c0,2.8,0.8,5.5,2.3,7.8L1,26.2l6.5,0.5l0.2-6.4L5,22.8C3.8,20.8,3,18.4,3,16z"/>
</svg>
