<?xml version="1.0" encoding="utf-8"?>
<!-- Generator: Adobe Illustrator 22.0.1, SVG Export Plug-In . SVG Version: 6.00 Build 0)  -->
<svg version="1.1" id="圖層_1" xmlns="http://www.w3.org/2000/svg" xmlns:xlink="http://www.w3.org/1999/xlink" x="0px" y="0px"
	 viewBox="0 0 50 50" style="enable-background:new 0 0 50 50;" xml:space="preserve">
<style type="text/css">
	.st0{fill:#9E9B9D;}
</style>
<g>
	<path class="st0" d="M31.4,10.1c-0.2-5-2.6-7.4-4.6-8.6c-1.4-0.9-3.1-1.3-5-1.3h-0.1l0,0h-0.1c-1,0-3.1,0.2-5,1.3
		c-2,1.1-4.4,3.5-4.7,8.6c-0.1,0.7-0.7,7.7,2.9,11.8c1.6,1.9,3.9,2.9,6.7,2.9c0,0,0.1,0,0.2,0c0,0,0,0,0.1,0h0.1c2.8,0,5-1,6.7-2.9
		C32.2,17.8,31.5,10.8,31.4,10.1z"/>
	<g>
		<path class="st0" d="M38.4,35.5c-0.8-1.7-2.5-2.8-4.4-2.9c-2.7,0-4.9,2.2-4.9,4.9c0,3.7,2.5,5.5,5.2,8c3.5-1.2,5.5-2.4,5.6-2.5
			c0.2-0.1,0.4-0.4,0.5-0.6c0.7-1.2,0.7-3.7,0.6-4.2c0-0.1,0-0.2,0-0.3c-0.1-1.1-0.1-2.8-0.8-4.5C39.4,33.9,38.8,34.6,38.4,35.5z"/>
		<path class="st0" d="M27.6,37.5c0-3.5,2.9-6.3,6.4-6.3h0h0c1.7,0,3.3,0.7,4.4,1.8c0.3-0.3,0.6-0.6,1-0.8c-0.6-0.8-1.5-1.4-2.7-1.9
			h-0.1c-4.3-1-7.8-3.5-7.8-3.5c-0.1-0.1-0.2-0.1-0.3-0.1c-0.5-0.2-1.1,0-1.4,0.5v0.1c-1.4,1-3.1,1.5-5.2,1.6h-0.1c0,0,0,0-0.1,0
			s-0.1,0-0.2,0c-2,0-3.7-0.6-5.1-1.5c0,0,0-0.1-0.1-0.2c-0.4-0.5-1-0.7-1.4-0.5h-0.1c-0.1,0-0.2,0.1-0.3,0.1c0,0-3.5,2.5-7.8,3.5
			H6.6c-4.1,1.4-4.2,5.8-4.3,7.6c0,0.1,0,0.2,0,0.2c0,0.5,0,3,0.5,4.3c0.1,0.3,0.3,0.5,0.5,0.6c0.3,0.2,7,4.5,18.4,4.5
			c4.4,0,8.1-0.7,11-1.5C30.1,43.7,27.6,41.5,27.6,37.5z"/>
	</g>
	<path class="st0" d="M38.4,49.8c3.6-5.3,9.3-7,9.3-12.3c0-2.7-2.2-4.8-4.9-4.8c0,0,0,0,0,0c-1.9,0-3.6,1.1-4.4,2.8
		c-0.8-1.7-2.5-2.8-4.4-2.9c-2.7,0-4.9,2.2-4.9,4.9C29.1,42.9,34.6,44.4,38.4,49.8z"/>
</g>
</svg>
