<?xml version="1.0" encoding="utf-8"?>
<!-- Generator: Adobe Illustrator 16.0.0, SVG Export Plug-In . SVG Version: 6.00 Build 0)  -->
<!DOCTYPE svg PUBLIC "-//W3C//DTD SVG 1.1//EN" "http://www.w3.org/Graphics/SVG/1.1/DTD/svg11.dtd">
<svg version="1.1" id="圖層_1" xmlns="http://www.w3.org/2000/svg" xmlns:xlink="http://www.w3.org/1999/xlink" x="0px" y="0px"
	 width="27px" height="27px" viewBox="0 0 27 27" enable-background="new 0 0 27 27" xml:space="preserve">
<g>
	<g>
		<path fill="#3383CD" d="M13.5,1.3c6.728,0,12.2,5.473,12.2,12.2c0,6.728-5.473,12.2-12.2,12.2c-6.727,0-12.2-5.473-12.2-12.2
			C1.3,6.773,6.773,1.3,13.5,1.3 M13.5,0C6.044,0,0,6.044,0,13.5S6.044,27,13.5,27S27,20.956,27,13.5S20.956,0,13.5,0L13.5,0z"/>
	</g>
</g>
<g>
	<path fill="#3383CD" d="M17.294,9.678c-2.427-2.189-2.411-2.206-3.794-4.054c0,0-1.453,1.942-3.794,4.054
		c-2.341,2.112-3.654,4.339-2.169,6.566c2.667,2.513,5.962-0.229,5.962-0.229s3.298,2.74,5.964,0.229
		C20.948,14.018,19.635,11.791,17.294,9.678z"/>
	<path fill="#3383CD" d="M14.344,19.563c-0.713-1.53-0.844-2.53-0.844-2.53s-0.132,1-0.844,2.53c-0.625,1.345-1.75,2.406-1.75,2.406
		H13.5h2.594C16.094,21.969,14.969,20.906,14.344,19.563z"/>
</g>
</svg>
