<?xml version="1.0" encoding="utf-8"?>
<!-- Generator: Adobe Illustrator 16.0.0, SVG Export Plug-In . SVG Version: 6.00 Build 0)  -->
<!DOCTYPE svg PUBLIC "-//W3C//DTD SVG 1.1//EN" "http://www.w3.org/Graphics/SVG/1.1/DTD/svg11.dtd">
<svg version="1.1" id="Layer_1" xmlns="http://www.w3.org/2000/svg" xmlns:xlink="http://www.w3.org/1999/xlink" x="0px" y="0px"
	 width="50px" height="50px" viewBox="0 0 50 50" enable-background="new 0 0 50 50" xml:space="preserve">
<g>
	<g>
		<rect x="26.6" y="27.4" fill="#F54B6F" width="17.9" height="22.6"/>
	</g>
</g>
<g>
	<g>
		<rect x="5.5" y="27.4" fill="#F54B6F" width="17.9" height="22.6"/>
	</g>
</g>
<g>
	<g>
		<path fill="#F54B6F" d="M38.9,9.2c0.5-0.9,0.8-1.9,0.8-3c0-3.4-2.8-6.2-6.2-6.2c-2.5,0-5.1,1.3-7.1,3.6c-0.5,0.6-0.9,1.2-1.3,1.8
			c-0.4-0.6-0.8-1.2-1.3-1.8c-2-2.3-4.6-3.6-7.1-3.6c-3.4,0-6.2,2.8-6.2,6.2c0,1.1,0.3,2.1,0.8,3H2.6v14.9h20.8V9.2h3.3v14.9h20.8
			V9.2H38.9z M16.5,9.2c-1.6,0-3-1.3-3-3c0-1.7,1.3-3,3-3c3,0,5.8,3,6.6,6H16.5L16.5,9.2z M33.5,9.2h-6.6c0.8-2.9,3.6-6,6.6-6
			c1.6,0,3,1.3,3,3C36.4,7.9,35.1,9.2,33.5,9.2z"/>
	</g>
</g>
</svg>
