<?xml version="1.0" encoding="utf-8"?>
<!-- Generator: Adobe Illustrator 26.0.3, SVG Export Plug-In . SVG Version: 6.00 Build 0)  -->
<svg version="1.1" id="Capa_1" xmlns="http://www.w3.org/2000/svg" xmlns:xlink="http://www.w3.org/1999/xlink" x="0px" y="0px"
	 viewBox="0 0 490.4 490.4" style="enable-background:new 0 0 490.4 490.4;" xml:space="preserve">
<style type="text/css">
	.st0{fill:#9C9C9C;}
</style>
<g>
	<path class="st0" d="M450.9,66.3H39.5C17.7,66.3,0,84,0,105.8v278.8c0,21.8,17.7,39.5,39.5,39.5h411.4c21.8,0,39.5-17.7,39.5-39.5
		V105.8C490.4,84,472.7,66.3,450.9,66.3z M441,374.7H49.4v-259H441V374.7z"/>
	<path class="st0" d="M130.1,199.9h25.3v101.6c0,9.1,7.4,16.6,16.6,16.6c9.1,0,16.6-7.4,16.6-16.6V199.9h26
		c7.6,0,13.9-6.2,13.9-13.8c0-7.7-6.2-13.9-13.9-13.9h-84.4c-7.6,0-13.8,6.2-13.8,13.9C116.3,193.7,122.5,199.9,130.1,199.9z"/>
	<path class="st0" d="M282.8,306.8c2.2,6.8,8.5,11.4,15.6,11.4h14.9c7,0,13.3-4.5,15.5-11.1l38.1-113.2c1.7-5,0.9-10.5-2.2-14.8
		c-3.1-4.3-8-6.8-13.3-6.8H351c-7.1,0-13.5,4.6-15.7,11.3c-7.9,23.5-25.5,76.7-28.3,90.2l-27.3-89.4c-2.2-7.2-8.9-12.1-16.4-12.1
		c-5.5,0-10.6,2.6-13.8,7c-3.2,4.4-4.1,10.1-2.5,15.3L282.8,306.8z"/>
</g>
</svg>
