<?xml version="1.0" encoding="utf-8"?>
<!-- Generator: Adobe Illustrator 26.0.3, SVG Export Plug-In . SVG Version: 6.00 Build 0)  -->
<svg version="1.1" id="Capa_1" xmlns="http://www.w3.org/2000/svg" xmlns:xlink="http://www.w3.org/1999/xlink" x="0px" y="0px"
	 viewBox="0 0 55 55" style="enable-background:new 0 0 55 55;" xml:space="preserve">
<style type="text/css">
	.st0{fill:#336699;stroke:#336699;stroke-width:0.9;stroke-miterlimit:10;}
</style>
<g>
	<g>
		<g>
			<path class="st0" d="M30.2,53.8h-5.4c-1.8,0-2.3-0.9-4.9-7.1l-1-0.4c-5.5,2.5-6.2,2.5-6.7,2.5h-1l-0.8-0.7l-3.9-3.8
				C5.3,43,5.6,42,8.3,35.9l-0.4-1c-6.2-2.2-7.3-2.8-7.3-4.7V25c0-1.8,1-2.3,7.3-4.9l0.4-1c-2.8-5.9-3.1-7.1-1.8-8.4L11,6.4h1.1l0,0
				c0.6,0,1.7,0.2,6.8,2.3l1-0.4c2.3-6.1,2.8-7.1,4.8-7.1H30c1.8,0,2.3,0.9,4.9,7.1L36,8.7c5.5-2.5,6.2-2.5,6.7-2.5h1l0.9,0.7
				l3.8,3.7c1.4,1.4,1.1,2.3-1.7,8.5l0.4,1c6.2,2.2,7.3,2.8,7.3,4.7v5.3c0,1.8-1,2.3-7.3,4.9l-0.4,1c2.8,5.9,3.1,7,1.8,8.4L44,48.5
				h-1.1l0,0c-0.6,0-1.7-0.2-6.8-2.3L35,46.6C32.7,52.7,32.1,53.8,30.2,53.8z M25,51h5.2c0.6-0.9,1.9-4.5,2.4-5.9l0.2-0.5l3.2-1.3
				l0.5,0.2c4.5,1.8,5.7,2.2,6.1,2.3l3.6-3.5c-0.2-1.1-1.8-4.5-2.5-5.8l-0.2-0.6l1.4-3.1l0.6-0.2c1.5-0.6,5.2-1.9,6-2.6v-5
				c-0.9-0.6-4.6-1.8-6-2.4l-0.6-0.2l-1.4-3.2l0.2-0.6c0.6-1.4,2.2-5,2.4-6L42.5,9c-0.3,0.1-1.6,0.4-6,2.4l-0.6,0.3l-3.2-1.3
				l-0.2-0.6c-0.6-1.4-2-5-2.6-5.8h-5.1c-0.6,0.9-1.9,4.7-2.4,5.9L22,10.5l-3.2,1.3l-0.5-0.2c-4.5-1.8-5.7-2.2-6.1-2.3l-3.6,3.5
				c0.2,1.1,1.8,4.5,2.5,5.8l0.3,0.6l-1.4,3.1l-0.6,0.2c-1.7,0.7-5.3,2-6.1,2.6v5c0.9,0.6,4.6,1.9,6,2.4l0.6,0.2l1.4,3.1l-0.2,0.6
				c-0.6,1.4-2.2,5-2.4,6l3.6,3.5c0.3-0.1,1.6-0.5,6-2.4l0.6-0.3l3.1,1.4l0.2,0.6C22.9,46.5,24.4,50.1,25,51z M27.4,37.6
				c-5.6,0-10.2-4.6-10.2-10.1s4.6-10.1,10.2-10.1s10.2,4.5,10.2,10.1C37.6,33,33,37.6,27.4,37.6z M27.4,20.2
				c-4.1,0-7.5,3.3-7.5,7.3s3.4,7.3,7.5,7.3s7.5-3.3,7.5-7.3S31.5,20.2,27.4,20.2z"/>
		</g>
	</g>
</g>
</svg>
