<?xml version="1.0" encoding="utf-8"?>
<!-- Generator: Adobe Illustrator 16.0.0, SVG Export Plug-In . SVG Version: 6.00 Build 0)  -->
<!DOCTYPE svg PUBLIC "-//W3C//DTD SVG 1.1//EN" "http://www.w3.org/Graphics/SVG/1.1/DTD/svg11.dtd">
<svg version="1.1" id="圖層_1" xmlns="http://www.w3.org/2000/svg" xmlns:xlink="http://www.w3.org/1999/xlink" x="0px" y="0px"
	 width="27px" height="27px" viewBox="0 0 27 27" enable-background="new 0 0 27 27" xml:space="preserve">
<g>
	<path fill="#9E9B9D" d="M2.004,11.915c2.5-3.696,6.532-6.384,11.52-6.384c4.962,0,8.971,2.667,11.476,6.331l1.832-1.875
		c-2.998-4.115-7.839-6.805-13.308-6.805c-5.498,0-10.362,2.716-13.356,6.866L2.004,11.915z"/>
	<path fill="#9E9B9D" d="M5.63,16.131c1.49-2.837,4.357-4.928,7.885-4.928c3.51,0,6.365,2.071,7.861,4.886l1.637-1.807
		c-1.973-3.183-5.486-5.315-9.498-5.315c-4.032,0-7.563,2.153-9.529,5.363L5.63,16.131z"/>
	<path fill="#9E9B9D" d="M9.34,20.281c0.646-1.678,2.185-2.999,4.17-2.999c1.974,0,3.508,1.309,4.16,2.976l1.612-1.777
		c-1.149-2-3.305-3.353-5.772-3.353c-2.48,0-4.646,1.364-5.792,3.38L9.34,20.281z"/>
	<path fill="#9E9B9D" d="M13.505,24.986l2.482-2.799c-0.553-0.775-1.455-1.286-2.482-1.286c-1.031,0-1.94,0.514-2.493,1.298
		L13.505,24.986z"/>
</g>
</svg>
