<?xml version="1.0" encoding="utf-8"?>
<!-- Generator: Adobe Illustrator 16.0.0, SVG Export Plug-In . SVG Version: 6.00 Build 0)  -->
<!DOCTYPE svg PUBLIC "-//W3C//DTD SVG 1.1//EN" "http://www.w3.org/Graphics/SVG/1.1/DTD/svg11.dtd">
<svg version="1.1" id="圖層_1" xmlns="http://www.w3.org/2000/svg" xmlns:xlink="http://www.w3.org/1999/xlink" x="0px" y="0px"
	 width="27px" height="27px" viewBox="0 0 27 27" enable-background="new 0 0 27 27" xml:space="preserve">
<g>
	<g>
		<path fill="#3383CD" d="M13.5,1.3c6.728,0,12.2,5.473,12.2,12.2c0,6.728-5.473,12.2-12.2,12.2c-6.727,0-12.2-5.473-12.2-12.2
			C1.3,6.773,6.773,1.3,13.5,1.3 M13.5,0C6.044,0,0,6.044,0,13.5S6.044,27,13.5,27S27,20.956,27,13.5S20.956,0,13.5,0L13.5,0z"/>
	</g>
</g>
<circle fill="#3383CD" cx="15.115" cy="7.055" r="2.877"/>
<path fill="#3383CD" d="M8.866,11.981c0,0,5.487-2.116,7.01,0.662s-5.291,9.193,0,8.134c0.794-0.266,0.89-0.293,0.89-0.293
	l0.328,1.266c0,0-6.344,2.833-7.552-0.958c-0.469-1.375,1.157-3.804,2.167-5.792c0.875-2.125-1.342-2.318-2.842-1.708
	C8.897,12.417,8.866,11.981,8.866,11.981z"/>
</svg>
