<?xml version="1.0" encoding="utf-8"?>
<!-- Generator: Adobe Illustrator 26.0.3, SVG Export Plug-In . SVG Version: 6.00 Build 0)  -->
<svg version="1.1" id="圖層_1" xmlns="http://www.w3.org/2000/svg" xmlns:xlink="http://www.w3.org/1999/xlink" x="0px" y="0px"
	 viewBox="0 0 50 50" style="enable-background:new 0 0 50 50;" xml:space="preserve">
<style type="text/css">
	.st0{fill:#336699;}
</style>
<path class="st0" d="M7.9,39L7.9,39c-1.5,0-2.5-0.8-2.9-2.2c-0.5-1.9-1-5.9-1.5-7.9C3,27,2.6,25.2,2.1,23.3
	c-0.9-0.5-1.6-1.5-1.9-2.6l-0.1-0.2V19l0.1-0.3c0.1-0.1,0.1-0.3,0.2-0.4c0.6-1.5,1.8-2.5,3.3-2.6c1.7-0.3,3.2,0.4,4.1,1.9
	c0.9,1.3,1,2.9,0.1,4.3c0.9,0.9,1.8,1.8,2.7,2.7c0.8,0.8,1.8,1.2,2.8,1.1s2-0.6,2.7-1.6c0.6-0.9,1.3-1.8,2-2.7
	c0.7-0.9,1.4-1.8,2-2.7c0.3-0.4,0.6-0.8,0.9-1.2c0.1-0.2,0.2-0.3,0.4-0.5c-1.2-2.7,0.1-4.3,0.9-5c1.6-1.3,3.8-1.3,5.4,0
	c1.5,1.4,1.8,3.1,1,5c0.5,0.7,1,1.4,1.5,2.1c1.3,1.8,2.7,3.7,4.1,5.4c0.6,0.7,1.4,1.1,2.3,1.2s1.9-0.2,2.5-0.9
	c0.6-0.5,1.2-1.2,1.8-1.8l0.1-0.1l1.1-1.1c-0.8-1.4-0.7-3.2,0.3-4.6c1.3-1.7,3.5-2.2,5.3-1.2c1.4,0.8,1.9,1.9,2.2,2.8L50,19v1.4
	l-0.1,0.2c-0.4,1.2-1,2.1-1.9,2.7c-0.2,0.6-0.3,1.3-0.5,1.9s-0.3,1.3-0.5,1.9c-0.6,2.4-1.2,6.8-1.8,9.2v0.2c-0.3,1-1,2.4-3.1,2.4
	h-0.3c-5.7,0-11.3,0-17,0C19.3,39,13.6,39,7.9,39z M7.7,36.2L7.7,36.2h0.2c5.7,0,11.3,0,17,0s11.3,0,17,0h0.3c0.1,0,0.2,0,0.2,0
	c0-0.1,0.1-0.1,0.1-0.3v-0.1c0.6-2.4,1.3-6.8,1.8-9.2c0.2-0.7,0.3-1.3,0.5-1.9c0.1-0.6,0.3-1.2,0.5-1.8l-2.2,2.2
	c-0.6,0.7-1.3,1.4-2,2c-1.2,1.1-2.9,1.7-4.6,1.6c-1.7-0.1-3.2-0.9-4.3-2.2c-1.5-1.8-2.9-3.7-4.2-5.5c-0.7-0.9-1.4-1.8-2-2.7
	l-0.6-0.8l0.5-0.8c0.9-1.6,0.5-2,0.1-2.3c-0.5-0.4-1.2-0.4-1.7,0.1c-0.3,0.2-0.8,0.7,0.1,2.3l0.5,0.8l-0.6,0.7
	c-0.3,0.4-0.6,0.8-0.9,1.2s-0.6,0.8-0.9,1.2c-0.7,0.9-1.3,1.8-2,2.7c-0.7,0.9-1.4,1.8-2,2.7c-1.3,1.6-3,2.6-4.8,2.7s-3.6-0.6-5.1-2
	c-1.2-1.3-2.3-2.4-3.5-3.5l-0.2-0.5c0.4,1.8,0.9,3.6,1.4,5.4C6.7,30.2,7.2,34.2,7.7,36.2C7.7,36.1,7.7,36.2,7.7,36.2z M45.8,18.4
	c-0.4,0-0.7,0.2-1,0.5c-0.4,0.5-0.3,1.3,0.1,1.7l0.9,0.9c0.2-0.3,0.5-0.5,0.7-0.5c0.3-0.1,0.6-0.4,0.8-1v-0.5
	c-0.2-0.5-0.4-0.8-0.8-1C46.3,18.5,46,18.4,45.8,18.4z M2.9,20.1c0.2,0.5,0.5,0.9,1,1.1l0.7,0.3l0.2-0.3C4.9,21,5,20.9,5.2,20.7
	c0.1-0.1,0.1-0.2,0.2-0.3c0.3-0.5,0.3-0.9,0-1.3c-0.3-0.6-0.7-0.7-1.3-0.6H4c-0.3,0-0.7,0.1-1,0.9l-0.1,0.1v0.1V20.1z"/>
</svg>
