<?xml version="1.0" encoding="utf-8"?>
<!-- Generator: Adobe Illustrator 26.0.3, SVG Export Plug-In . SVG Version: 6.00 Build 0)  -->
<svg version="1.1" id="圖層_1" xmlns="http://www.w3.org/2000/svg" xmlns:xlink="http://www.w3.org/1999/xlink" x="0px" y="0px"
	 viewBox="0 0 50 50" style="enable-background:new 0 0 50 50;" xml:space="preserve">
<style type="text/css">
	.st0{fill:#9C9C9C;}
</style>
<path class="st0" d="M25,14.5c0.6,0,1.2,0.2,1.6,0.6c1,0.9,1.1,2.1,0.2,3.7c1.9,2.5,3.7,5.1,5.7,7.5c0.8,1,2.1,1.6,3.3,1.6
	c1.1,0,2.1-0.4,2.9-1.1c0.6-0.5,1.2-1.1,1.7-1.7c0.6-0.6,1.2-1.2,1.8-1.8c-0.1-0.1-0.2-0.2-0.3-0.3c-0.9-0.9-0.9-2.3-0.2-3.3
	c0.5-0.7,1.2-1,2-1c0.4,0,0.8,0.1,1.2,0.3c0.8,0.4,1.1,1,1.4,1.8c0,0.3,0,0.6,0,0.9c-0.3,0.9-0.7,1.6-1.6,1.9
	c-0.1,0-0.1,0.2-0.1,0.3c-0.3,1.2-0.6,2.5-0.9,3.8c-0.5,2.2-1.1,4.5-1.7,6.7c-0.3,0.9-0.6,1.2-1.6,1.2c-0.1,0-0.2,0-0.3,0
	c-10.3,0-20.7,0.1-31,0.1c-0.1,0-0.2,0-0.2,0c-0.8,0-1.1-0.3-1.3-1C7,31,6.1,27.4,5.2,23.8c0-0.1-0.1-0.2-0.1-0.3
	c-0.9-0.4-1.4-1.1-1.6-2c0-0.3,0-0.6,0-0.9c0.1-0.2,0.1-0.3,0.2-0.4c0.3-0.9,1-1.6,2-1.6c0.2,0,0.3,0,0.5,0c0.8,0,1.5,0.4,2,1.2
	c0.6,0.9,0.6,1.8,0,2.7c-0.2,0.3-0.3,0.4-0.5,0.7c1.1,1,2.2,2.1,3.2,3.2c1,1,2.2,1.4,3.3,1.4c1.4,0,2.7-0.6,3.7-1.9
	c1.2-1.6,2.5-3.3,3.7-4.9c0.5-0.7,1.1-1.5,1.6-2.2c-0.9-1.6-0.9-2.8,0.2-3.7C23.9,14.6,24.5,14.5,25,14.5 M25,11
	c-1.4,0-2.7,0.5-3.8,1.4c-0.8,0.6-2.7,2.6-1.9,5.8c-0.2,0.2-0.3,0.4-0.5,0.6c-0.6,0.8-1.2,1.6-1.8,2.4c-0.6,0.8-1.2,1.6-1.8,2.5
	c-0.2,0.3-0.6,0.6-1,0.6c-0.3,0-0.6-0.1-0.9-0.4c-0.5-0.5-0.9-1-1.4-1.4c0.4-1.5,0.1-3.2-0.9-4.6c-1.1-1.7-2.9-2.7-4.9-2.7
	c-0.3,0-0.6,0-0.9,0.1c-2.1,0.2-3.9,1.6-4.7,3.7c-0.1,0.1-0.1,0.3-0.1,0.4L0,19.9v0.8v0.9v0.5l0.1,0.5c0.4,1.2,1,2.3,1.9,3.1
	c0.4,1.4,0.7,2.9,1.1,4.4c0.5,1.8,0.9,3.6,1.3,5.3C5.1,37.6,6.9,39,9.2,39h0.2c5.2,0,10.4,0,15.5,0c5.1,0,10.3,0,15.5,0h0.3
	c1.4,0,3.9-0.5,4.9-3.7l0,0l0,0c0.6-2.2,1.2-4.5,1.7-6.8c0.2-0.6,0.3-1.2,0.4-1.8c0.1-0.3,0.2-0.7,0.2-1c0.7-0.7,1.4-1.6,1.9-3.1
	l0.1-0.5v-0.5v-0.9v-0.6l-0.2-0.5c-0.4-1.1-1.1-2.7-3-3.7l0,0l0,0c-0.9-0.5-1.9-0.7-2.9-0.7c-1.9,0-3.6,0.9-4.7,2.4l0,0l0,0
	c-1.1,1.5-1.4,3.3-1,4.9l0,0L38,22.6l-0.1,0.1c-0.4,0.5-0.9,0.9-1.3,1.3l0,0l0,0c-0.2,0.2-0.5,0.2-0.6,0.2c-0.1,0-0.5,0-0.7-0.3
	c-1.3-1.5-2.5-3.1-3.7-4.8c-0.2-0.3-0.5-0.7-0.7-1c0.7-3-0.9-4.9-1.8-5.7l-0.1-0.1l-0.1-0.1C27.8,11.5,26.4,11,25,11L25,11z"/>
</svg>
