<?xml version="1.0" encoding="utf-8"?>
<!-- Generator: Adobe Illustrator 26.0.3, SVG Export Plug-In . SVG Version: 6.00 Build 0)  -->
<svg version="1.1" id="圖層_1" xmlns="http://www.w3.org/2000/svg" xmlns:xlink="http://www.w3.org/1999/xlink" x="0px" y="0px"
	 width="20px" height="20px" viewBox="0 0 20 20" style="enable-background:new 0 0 20 20;" xml:space="preserve">
<style type="text/css">
	.st0{fill:#FFFFFF;}
</style>
<g>
	<path class="st0" d="M19.6,2.3L8,0C7.7-0.1,7.5,0.1,7.4,0.3L3.6,10.6c-0.1,0.3,0.1,0.7,0.4,0.9c0.3,0.1,0.7-0.1,0.9-0.4l3.5-9.7
		l10,2l-4.3,12.4c-0.4,1-1,1.9-1.8,2.2c-2.7,0.9-3.3-1.3-3-2.9l-8.9-3.5c-1,2.4,0.2,4.2,1.8,4.9l6.9,2.8l0,0
		c0.6,0.2,1.2,0.3,1.8,0.3c0.7,0,1.4-0.1,2-0.4c1.2-0.6,2-1.6,2.5-3L20,3C20.1,2.7,19.9,2.4,19.6,2.3z"/>
	<path class="st0" d="M7.7,9c-0.1,0.7-0.1,1.3,0.2,1.8c0.3,0.5,0.7,0.9,1.3,1.2l-0.4,1l0.8,0.3l0.4-1c0.8,0.2,1.5,0.1,2.1-0.2
		s1-0.8,1.3-1.5c0.2-0.6,0.2-1.2,0-1.6c-0.2-0.5-0.8-1-1.6-1.5l0.7-2.1c0.3,0.2,0.5,0.6,0.4,1l1.6,0.2c0.1-0.6,0-1.1-0.3-1.5
		s-0.7-0.7-1.3-0.9l0.2-0.5l-0.8-0.2L12.1,4c-0.7-0.1-1.3,0-1.8,0.3C9.8,4.6,9.4,5,9.2,5.6C9,6.1,9,6.7,9.2,7.1
		C9.4,7.6,9.8,8,10.5,8.5l-0.8,2.2c-0.2-0.2-0.3-0.4-0.4-0.6C9.2,9.8,9.2,9.6,9.2,9.3L7.7,9z M10.6,5.9c0.1-0.2,0.2-0.4,0.4-0.5
		s0.4-0.2,0.7-0.2L11,7c-0.2-0.2-0.3-0.3-0.4-0.5C10.5,6.3,10.5,6.1,10.6,5.9z M11.2,9c0.3,0.2,0.5,0.4,0.6,0.6
		c0.1,0.2,0.1,0.5,0,0.7c-0.1,0.3-0.3,0.5-0.5,0.6C11,11,10.8,11.1,10.5,11L11.2,9z"/>
</g>
</svg>
