<?xml version="1.0" encoding="utf-8"?>
<!-- Generator: Adobe Illustrator 22.0.1, SVG Export Plug-In . SVG Version: 6.00 Build 0)  -->
<svg version="1.1" id="圖層_1" xmlns="http://www.w3.org/2000/svg" xmlns:xlink="http://www.w3.org/1999/xlink" x="0px" y="0px"
	 width="52px" height="52px" viewBox="0 0 52 52" style="enable-background:new 0 0 52 52;" xml:space="preserve">
<style type="text/css">
	.st0{fill:#0C5D91;}
</style>
<path d="M45.3,18.9c-4.4-3-8.8-6.1-13-9.1c-1.8-1.3-3.6-2.5-5.4-3.8c-0.8-0.6-1.3-0.6-2.1,0c-1.8,1.3-3.7,2.6-5.6,4
	c-5.1,3.7-9.2,6.5-13,9.2c-0.5,0.4-0.8,0.8-0.8,1.4V45c0,0.7,0.3,1.5,1.6,1.5h13.1c1.1,0,1.6-0.5,1.6-1.6V33c2.8,0,5.8,0,8.6-0.1
	v11.9c0,1.3,0.4,1.7,1.6,1.7h12.8c1.4,0,1.8-0.4,1.8-1.7V20.9C46.4,20,46.1,19.4,45.3,18.9z M31.3,30.4H20.7c-1.2,0-1.6,0.4-1.6,1.6
	v11.4c0,0.4-0.1,0.5-0.5,0.5H8.4c-0.1,0-0.1,0-0.2,0c0,0-0.1,0-0.1,0V21.7c0-0.5,0.2-0.7,0.5-0.9c2.9-2,5.7-4,8.5-6
	c2.8-2,5.7-4,8.5-6c0.3-0.2,0.4-0.2,0.8,0c2.3,1.6,4.7,3.3,7,4.9c3.3,2.3,6.7,4.7,10,7.1c0.4,0.2,0.6,0.5,0.6,1v21.5
	c0,0.5-0.1,0.6-0.6,0.6h-9.8c-0.5,0-0.6-0.1-0.6-0.6V32.1C33,30.8,32.6,30.4,31.3,30.4z"/>

</svg>
