<?xml version="1.0" encoding="utf-8"?>
<!-- Generator: Adobe Illustrator 26.0.3, SVG Export Plug-In . SVG Version: 6.00 Build 0)  -->
<svg version="1.1" id="圖層_1" xmlns="http://www.w3.org/2000/svg" xmlns:xlink="http://www.w3.org/1999/xlink" x="0px" y="0px"
	 width="34px" height="34px" viewBox="0 0 34 34" style="enable-background:new 0 0 34 34;" xml:space="preserve">
<style type="text/css">
	.st0{fill:url(#SVGID_1_);}
</style>
<linearGradient id="SVGID_1_" gradientUnits="userSpaceOnUse" x1="1" y1="17" x2="33" y2="17">
	<stop  offset="0" style="stop-color:#2AABEE"/>
	<stop  offset="1" style="stop-color:#229ED9"/>
</linearGradient>
<path class="st0" d="M32.7,3.5c-0.2-0.3-0.5-0.6-0.8-0.7c0,0,0,0,0,0c-0.2-0.1-0.3-0.2-0.5-0.2c-0.4-0.1-0.8-0.1-1.2,0.1L2.4,13.6
	c-0.9,0.3-1.4,1.2-1.3,2.2c0.1,1,0.8,1.7,1.7,1.9l7.2,1.5v9c0,0.6,0.2,1.1,0.6,1.5c0.4,0.4,0.9,0.6,1.5,0.6c0,0,0,0,0,0
	c0.6,0,1.1-0.2,1.5-0.6l4.1-4.1l6.1,5.4c0.4,0.4,0.9,0.5,1.4,0.5c0.6,0,1.2-0.2,1.6-0.7c0.2-0.3,0.4-0.6,0.5-0.9l5.6-24.7
	C33.1,4.6,33,4,32.7,3.5z M2.9,15.6c0-0.2,0.1-0.2,0.2-0.3l22.9-9l-15.3,11l-7.6-1.5C2.9,15.8,2.9,15.7,2.9,15.6z M12.3,28.3
	c-0.1,0.1-0.3,0.1-0.4,0c0,0-0.1-0.1-0.1-0.2v-7.7l4.4,3.9L12.3,28.3z M25.5,29.4c0,0,0,0.1-0.1,0.1c-0.1,0.1-0.3,0.1-0.4,0
	L12.4,18.4L31.1,5L25.5,29.4z"/>
</svg>
