<?xml version="1.0" encoding="utf-8"?>
<!-- Generator: Adobe Illustrator 24.3.0, SVG Export Plug-In . SVG Version: 6.00 Build 0)  -->
<svg version="1.1" id="圖層_1" xmlns="http://www.w3.org/2000/svg" xmlns:xlink="http://www.w3.org/1999/xlink" x="0px" y="0px"
	 width="50px" height="50px" viewBox="0 0 50 50" style="enable-background:new 0 0 50 50;" xml:space="preserve">
<style type="text/css">
	.st0{fill:#3784DF;}
</style>
<g id="组_9" transform="translate(659.18 -132.991)">
	<g id="组_6" transform="translate(-651.776 140.353)">
		<path id="路径_672" class="st0" d="M35.2,17.6c0,9.7-7.9,17.6-17.6,17.6c0,0,0,0,0,0C7.8,35.2-0.1,27.3,0,17.6c0,0,0,0,0,0
			C0,7.8,8,0,17.7,0C27.4,0.1,35.2,7.9,35.2,17.6z M33.8,17.7c0-9-7.2-16.3-16.2-16.3c0,0,0,0,0,0C8.7,1.4,1.4,8.6,1.4,17.5
			c-0.1,9,7.1,16.3,16.1,16.4C26.4,34,33.8,26.8,33.8,17.7C33.8,17.8,33.8,17.7,33.8,17.7L33.8,17.7z"/>
		<path id="路径_673" class="st0" d="M20.6,20.9c1.8-0.1,3.6-0.6,5.2-1.4c0.8-0.5,0.8-0.8,0-1.3c-1.1-0.6-2.3-1-3.6-1.2
			c-0.1,0-0.2,0-0.3-0.1c-0.4-0.1-0.6-0.4-0.6-0.8c0-0.4,0.4-0.6,0.7-0.6c0,0,0.1,0,0.1,0c1.2,0.3,2.4,0.6,3.5,1
			c0.5,0.2,1,0.5,1.4,0.9c0.8,0.6,1,1.7,0.5,2.6c-0.1,0.2-0.3,0.4-0.5,0.5c-1,0.7-2.2,1.2-3.4,1.5c-1,0.2-2,0.4-3.1,0.6v0.5
			c0,1.5,0,3.1,0,4.6c0.1,1.6-1.2,3-2.8,3.1c-0.1,0-0.1,0-0.2,0c-1.6,0-2.9-1.3-2.9-3c0,0,0-0.1,0-0.1c0-1.7,0-3.4,0-5.1
			c-0.8-0.1-1.5-0.2-2.3-0.4c-1.1-0.3-2.2-0.6-3.2-1c-0.5-0.2-1-0.6-1.4-1c-0.6-0.6-0.6-1.7,0-2.3c0.5-0.6,1.2-1.1,2-1.3
			c1-0.3,2.1-0.6,3.1-0.8c0.6-0.1,0.9,0.1,1,0.6c0.1,0.4-0.2,0.8-0.8,0.9c-1.2,0.1-2.3,0.5-3.4,1c-0.2,0.1-0.4,0.3-0.6,0.5
			c-0.2,0.2-0.2,0.4,0,0.6c0.2,0.2,0.4,0.4,0.6,0.5c1.6,0.7,3.2,1.1,4.9,1.2v-7.5c0-0.2-0.2-0.4-0.4-0.4l0,0c-1.1,0-2.1,0-3.2,0
			c-1.6,0-2.9-1.3-2.9-2.9c0,0,0,0,0,0c0-1.6,1.3-2.9,2.9-2.9c0,0,0,0,0,0c4.4,0,8.8,0,13.2,0c1.6,0,2.9,1.3,2.9,2.9c0,0,0,0,0,0
			c0,1.6-1.3,2.9-2.9,2.9c0,0,0,0,0,0c-1,0-2.1,0-3.2,0c-0.2,0-0.4,0.2-0.4,0.4L20.6,20.9z"/>
	</g>
	<g id="组_7" transform="translate(-659.18 132.991)">
		<path id="路径_674" class="st0" d="M26.6,0c0.9,0.1,1.9,0.3,2.8,0.4c0.2,0,0.4,0.1,0.5,0.1c0.5,0.1,0.9,0.6,0.9,1.1
			c0,0,0,0,0,0.1c-0.1,0.5-0.7,0.9-1.2,0.8C28,2.2,26.4,2,24.8,2C15.7,2.3,8.7,6.4,4.5,14.6c-4.3,8.3-3.4,16.5,2,24.2
			c0.1,0.1,0.2,0.3,0.2,0.3c0.7-0.2,1.4-0.3,2.1-0.4c1.8,0,3.5,1.2,3.9,3c0.5,1.8-0.3,3.6-1.8,4.6c-1.6,1-3.6,0.8-4.9-0.5
			c-1.3-1.2-1.7-3.2-0.9-4.8C5.3,40.7,5.3,40.3,5,40c-2.9-3.8-4.6-8.4-5-13.1c0-0.1,0-0.3-0.1-0.4v-3c0.2-1.1,0.3-2.2,0.5-3.3
			c2-10.1,10-17.9,20.2-19.7c0.9-0.2,1.9-0.3,2.8-0.4L26.6,0z M8.8,40.6c-1.2,0-2.1,1-2.1,2.1c0,1.2,1,2.1,2.1,2.1
			c1.2,0,2.2-1,2.2-2.2c0,0,0,0,0,0C10.9,41.6,10,40.6,8.8,40.6z"/>
		<path id="路径_675" class="st0" d="M23.4,50c-0.9-0.1-1.9-0.3-2.8-0.4c-0.2,0-0.3-0.1-0.5-0.1c-0.5-0.1-0.9-0.5-0.9-1.1
			c0,0,0-0.1,0-0.1c0.1-0.5,0.6-0.9,1.2-0.8c0,0,0,0,0,0c1.6,0.2,3.2,0.4,4.9,0.4c9.2-0.1,17.5-5.8,20.9-14.3
			c3.1-8,2.1-15.5-2.8-22.5c-0.1-0.1-0.1-0.2-0.2-0.3c0,0,0,0,0,0c-0.7,0.2-1.4,0.3-2.1,0.4c-1.8,0-3.5-1.2-3.9-3
			c-0.5-1.8,0.3-3.6,1.8-4.6c1.6-1,3.6-0.8,4.9,0.5c1.3,1.2,1.7,3.2,0.9,4.8C44.7,9.3,44.7,9.7,45,10c2.9,3.8,4.6,8.4,5,13.1
			c0,0.1,0,0.3,0.1,0.4v3c0,0.1-0.1,0.3-0.1,0.4c-0.2,1.2-0.3,2.3-0.5,3.5c-2.2,9.9-10.1,17.4-20,19.2c-0.9,0.1-1.9,0.3-2.8,0.4
			L23.4,50z M41.2,9.4c1.2,0,2.1-0.9,2.2-2.1c0-1.2-1-2.2-2.1-2.2c0,0,0,0,0,0c-1.2,0-2.1,1-2.1,2.1C39.1,8.4,40,9.4,41.2,9.4
			L41.2,9.4z"/>
		<path id="路径_676" class="st0" d="M34,3.7c-0.5,0-1-0.5-1-1c0-0.5,0.5-0.9,1-0.9c0.5,0,1,0.4,1,1c0,0,0,0,0,0
			C34.9,3.3,34.5,3.7,34,3.7z"/>
		<path id="路径_677" class="st0" d="M17,47.3c0,0.5-0.4,0.9-1,0.9c0,0,0,0,0,0c-0.5,0-1-0.4-0.9-1c0-0.5,0.5-1,1-1c0,0,0,0,0,0
			C16.6,46.4,17,46.8,17,47.3z"/>
	</g>
</g>
</svg>
