<?xml version="1.0" encoding="utf-8"?>
<!-- Generator: Adobe Illustrator 26.0.3, SVG Export Plug-In . SVG Version: 6.00 Build 0)  -->
<svg version="1.1" id="圖層_1" xmlns="http://www.w3.org/2000/svg" xmlns:xlink="http://www.w3.org/1999/xlink" x="0px" y="0px"
	 width="50px" height="50px" viewBox="0 0 50 50" style="enable-background:new 0 0 50 50;" xml:space="preserve">
<style type="text/css">
	.st0{fill:#739734;}
</style>
<g>
	<path class="st0" d="M32.2,2.5c1.4,1,2.9,2,4.4,3c3.4,2.4,6.9,4.8,10.3,7.2c0.9,0.6,1,1.1,0.4,2s-1.3,1.9-2,2.9
		c-0.3,0.5-0.7,0.6-1.1,0.3s-0.4-0.7-0.1-1.2l2-2.9L32,4.1c-3.4,4.8-6.7,9.6-10.1,14.4c0.2,0,0.3,0,0.5,0c1.3,0,2.5,0,3.8,0
		c0.3,0.1,0.6-0.1,0.6-0.4c0.8-2.1,2.5-3.8,4.7-4.6c1-0.4,2.1-0.4,3.1-0.1c1.8,0.6,2.9,2.3,2.8,4.5c0,0.2,0,0.3,0,0.6h0.5
		c1.1,0,2.2,0,3.2,0c2,0,3.6,1.6,3.6,3.5c0,0,0,0.1,0,0.1c0,1.8,0,3.5,0,5.3c0,0.3,0.1,0.6,0.4,0.6c1.4,0.5,2.4,1.8,2.4,3.2
		c0.1,1.1,0.1,2.3,0,3.4c0,1.5-1,2.8-2.5,3.3c-0.3,0.1-0.4,0.3-0.4,0.6c0,1.7,0,3.4,0,5.2c0.1,2-1.4,3.7-3.4,3.8c-0.1,0-0.3,0-0.4,0
		h-5.2c-0.5,0-0.8-0.3-0.8-0.7c0-0.4,0.4-0.7,0.8-0.7c0,0,0,0,0.1,0c1.3,0,2.6-0.1,3.9,0c3.2,0.2,3.9-0.6,3.7-3.7
		c-0.1-1.2,0-2.4,0-3.6v-0.5c-1.4,0-2.8,0-4.2,0c-0.7,0-1.3,0-2-0.1c-2.5-0.5-4.3-2.7-4.2-5.2c0.1-2.6,2-4.8,4.5-5
		c1.7-0.2,3.5-0.1,5.3-0.1h0.7v-5.4c0-1.6-0.8-2.4-2.4-2.4H10.1c-1.6,0-2.4,0.8-2.4,2.4c0,7.1,0,14.2,0,21.3c0,1.5,0.9,2.4,2.4,2.4
		h22.4c0.6,0,1.1,0.5,0.8,1c-0.2,0.2-0.4,0.4-0.7,0.4c-1.9,0-21.1,0-22.9,0c-1.9-0.1-3.3-1.6-3.4-3.5c0-1.4,0-2.8,0-4.2
		c0-5.8,0-11.6,0-17.4c-0.1-1.3,0.6-2.6,1.7-3.3c0.2-0.1,0.2-0.4,0.2-0.6c0-2.1,0-4.2,0-6.3c0-0.1,0-0.3,0-0.4C8,11.4,8.4,11,8.8,11
		c0,0,0,0,0,0c0.4,0,0.7,0.3,0.7,0.7c0,0,0,0,0,0.1c0,2.1,0,4.2,0,6.3v0.4h2.1V5.2h-2v1.6c0,0.6,0,1.3,0,1.9c0,0.5-0.3,0.8-0.7,0.8
		c-0.4,0-0.7-0.3-0.8-0.7c0,0,0-0.1,0-0.1c0-1.3,0-2.5,0-3.8c-0.1-0.6,0.4-1.2,1-1.2c0.1,0,0.2,0,0.3,0c2.8,0,5.5,0,8.3,0h8.5
		c1.1,0,1.4,0.4,1.4,1.4v2.5C27.9,7.5,28,7.4,28,7.3C29,6,29.9,4.6,30.8,3.3c0.3-0.3,0.5-0.6,0.8-0.8H32.2z M16.6,18.5c1,0,2,0,3,0
		c0.4,0,0.7-0.1,0.9-0.5c1.6-2.4,3.2-4.7,4.9-7c0.6-0.8,0.9-1.8,0.8-2.7c-0.1-1,0-2,0-3.1h-9.7V18.5z M41,36.8h2.8
		c1.2,0.1,2.3-0.9,2.4-2.1c0,0,0-0.1,0-0.1c0-1,0-2,0-2.9c0-1.2-1-2.2-2.2-2.2c-1.9,0-3.9,0-5.8,0c-2.1,0-3.7,1.7-3.7,3.8
		c0,2.1,1.7,3.7,3.8,3.7L41,36.8z M15.1,18.5V5.2h-2v13.3H15.1z M28.2,18.5h7.7c0-0.5,0-0.9,0-1.4c-0.1-1.4-1.4-2.5-2.8-2.4
		c-0.1,0-0.2,0-0.3,0c-1.1,0.2-2.2,0.7-3,1.6C29.1,16.9,28.6,17.7,28.2,18.5L28.2,18.5z"/>
	<path class="st0" d="M43.6,13.3c-0.1,0.2-0.1,0.4-0.2,0.5c-0.2,0.3-0.2,0.8,0.1,1c0.4,0.4,0.4,0.7,0.1,1.1s-0.6,0.8-0.9,1.3
		c-0.3,0.4-0.8,0.6-1.1,0.3c-0.4-0.3-0.4-0.7-0.1-1.1c0,0,0.1-0.1,0.1-0.1c0.4-0.3,0.5-0.9,0.3-1.4c-0.2-0.3-0.1-0.7-0.1-1
		c0-0.2-0.1-0.3-0.2-0.5c-0.2-0.2-0.5-0.4-0.8-0.6c-0.3-0.2-0.4-0.7-0.2-1c0.2-0.3,0.6-0.4,0.9-0.2c0,0,0,0,0.1,0
		c0.6,0.3,1.1,0.7,1.6,1.1C43.3,12.9,43.5,13.1,43.6,13.3z"/>
	<path class="st0" d="M29.8,9c0.1-0.2,0.2-0.4,0.3-0.6C30.4,8,30.7,7.5,31,7.1c0.2-0.4,0.6-0.5,1-0.3c0,0,0,0,0,0
		c0.4,0.2,0.9,0.1,1.1-0.2c0.2-0.3,0.6-0.4,0.9-0.3c0.1,0,0.1,0.1,0.2,0.1c0.5,0.3,1,0.7,1.5,1c0.3,0.2,0.5,0.7,0.3,1c0,0,0,0,0,0.1
		c-0.2,0.3-0.7,0.4-1,0.2c0,0,0,0,0,0c-0.1,0-0.1-0.1-0.2-0.1c-0.4-0.4-0.9-0.6-1.5-0.2c-0.2,0.1-0.5,0.2-0.7,0.1
		c-0.4-0.1-0.8,0.1-0.9,0.5c-0.1,0.2-0.2,0.4-0.4,0.6c-0.2,0.1-0.5,0.2-0.8,0.1C30.1,9.5,30,9.2,29.8,9z"/>
	<path class="st0" d="M38.5,35.7c-1.2,0-2.4-0.7-2.7-1.9c-0.4-1.4,0.4-2.9,1.8-3.3c0.9-0.3,1.8-0.1,2.5,0.5c0.4,0.4,0.6,0.8,0.2,1.2
		c-0.3,0.3-0.7,0.3-1.1,0c-0.4-0.4-1-0.4-1.4-0.2c-0.4,0.2-0.7,0.7-0.6,1.2c0,0.5,0.4,0.9,0.9,1c0.4,0,0.8-0.1,1.1-0.3
		c0.5-0.3,0.8-0.3,1.1,0c0.3,0.3,0.2,0.8-0.2,1.1C39.6,35.4,39.1,35.7,38.5,35.7z"/>
</g>
</svg>
