<?xml version="1.0" encoding="utf-8"?>
<!-- Generator: Adobe Illustrator 22.0.1, SVG Export Plug-In . SVG Version: 6.00 Build 0)  -->
<svg version="1.1" id="圖層_1" xmlns="http://www.w3.org/2000/svg" xmlns:xlink="http://www.w3.org/1999/xlink" x="0px" y="0px"
	 width="50px" height="50px" viewBox="0 0 50 50" style="enable-background:new 0 0 50 50;" xml:space="preserve">
<style type="text/css">
	.st0{fill:#2782D7;}
</style>
<g id="组_199" transform="translate(25.5) rotate(90)">
	<g id="组_5" transform="translate(0)">
		<g id="组_4" transform="translate(0)">
			<path id="路径_310" class="st0" d="M43.2-7.2L25.9-24.1c-0.4-0.5-1.2-0.6-1.7-0.2c0,0,0,0,0,0c-0.1,0-0.1,0.1-0.2,0.2L6.8-7.2
				c-0.5,0.5-0.6,1.4,0,1.9C7-5,7.4-4.8,7.7-4.8h34.5c0.8,0,1.4-0.7,1.3-1.4C43.6-6.6,43.4-6.9,43.2-7.2L43.2-7.2z"/>
			<path id="路径_311" class="st0" d="M36.7-0.8H15.6c-1.1,0-2,1.4-2,3.1s0.9,3.1,2,3.1h21.1c1.1,0,2-1.4,2-3.1S37.8-0.8,36.7-0.8
				z"/>
			<path id="路径_312" class="st0" d="M36.7,9.2H15.6c-1.1,0-2,1.4-2,3.1s0.9,3.1,2,3.1h21.1c1.1,0,2-1.4,2-3.1S37.7,9.2,36.7,9.2
				z"/>
			<path id="路径_318" class="st0" d="M36.7,19.2H15.6c-1.1,0-2,1.4-2,3.1s0.9,3.1,2,3.1h21.1c1.1,0,2-1.4,2-3.1
				S37.7,19.2,36.7,19.2z"/>
		</g>
	</g>
</g>
</svg>
