<?xml version="1.0" encoding="utf-8"?>
<!-- Generator: Adobe Illustrator 22.0.1, SVG Export Plug-In . SVG Version: 6.00 Build 0)  -->
<svg version="1.1" id="圖層_1" xmlns="http://www.w3.org/2000/svg" xmlns:xlink="http://www.w3.org/1999/xlink" x="0px" y="0px"
	 width="50px" height="50px" viewBox="0 0 50 50" style="enable-background:new 0 0 50 50;" xml:space="preserve">
<style type="text/css">
	.st0{fill:url(#SVGID_1_);}
	.st1{fill:#FFFFFF;}
	.st2{fill:url(#SVGID_2_);}
</style>
<g>

		<linearGradient id="SVGID_1_" gradientUnits="userSpaceOnUse" x1="42.6777" y1="1324.6776" x2="7.3223" y2="1289.3224" gradientTransform="matrix(1 0 0 1 0 -1282)">
		<stop  offset="0" style="stop-color:#F37A3F"/>
		<stop  offset="1" style="stop-color:#FFA23E"/>
	</linearGradient>
	<circle class="st0" cx="25" cy="25" r="25"/>
	<path class="st1" d="M23.9,15.8v1.5c0,0-4-0.3-4.6,3.4s2.9,4.9,4.5,5.5s2.7,0.9,2.7,2S22,29,19.2,27.4V31c0,0,2.3,1.3,4.7,1.2v2.1
		h2.3V32c0,0,4.6-0.2,4.6-4.2S26,23.1,26,23.1s-2.9-0.9-2.7-1.8c0.4-1.6,4.6-0.7,5.9,0.2l1.4-3.1c0,0-3.2-1.2-4.4-1v-1.5h-2.3V15.8z
		"/>
	<g>
		<path class="st1" d="M23.3,10.9c6.6-0.8,12.7,3.3,14.8,9.2h-2.3L39,27l3.2-6.9h-1.9C38.3,13,31,8.2,23.2,9
			c-6.5,0.7-11.9,5.2-13.5,11.6l1.9,0.5C12.9,15.6,17.6,11.5,23.3,10.9z"/>
		<path class="st1" d="M26.7,39.1c-5.9,0.7-11.4-2.5-14-7.4l2-0.5l-4.4-5.6l-1.8,7.3l2.2-0.6c2.9,5.9,9.4,9.5,16.2,8.8
			c4-0.5,7.6-2.4,10.1-5.3c1.1-1.2,2-2.7,2.7-4.3l-1.8-0.7C36,35.3,31.7,38.5,26.7,39.1z"/>
	</g>
</g>

</svg>
