<svg version="1.1" id="_x3C_圖層_x3E_" xmlns="http://www.w3.org/2000/svg" x="0" y="0" viewBox="0 0 88 41" style="enable-background:new 0 0 88 41" xml:space="preserve"><style>.st0{fill:#399fd8}.st1{fill:#ffa71a}</style><path class="st0" d="M42.6.1c-4.3 0-6.7.1-7 .1-1.3 0-3.8 0-7.4-.1l-1.6 2.5-12.4 12.3.9-14.8c-3.4 0-5.5.1-6.3.1C7.6.2 5.3.2 2.1.1v2.5c0 2.1-.1 5.8-.4 10.9-.3 7.5-.6 13.3-.9 17.6-.2 2.4-.3 6.3-.7 10 3.6-.1 5.8-.1 6.7-.1l6.4.1.3-12.1L42.6.1z"/><path class="st0" d="M28.4 18.9s.9 1.4 2.2 3.5C37.9 34.3 45.1 40.2 47.9 41c-6.3 0-15.2.1-19.2-2.5s-6.2-8.1-8.2-11.3l7.9-8.3z"/><path class="st1" d="M82 .1h-7c-.1 0-.2 1.6-.3 4.7-.1 3.2-.3 6.8-.6 10.6-.3 4.5-.5 7.5-.7 8.7-.2 1.3-.4 2.3-.7 3.1-.3.8-.7 1.5-1.1 2.1-.3.5-.7.9-1.2 1.2-.5.4-1.1.7-1.7.9-.8.3-1.7.4-2.6.4-1.1 0-2.1-.2-3.2-.5-1-.4-1.8-.9-2.4-1.6-.4-.4-.6-.9-.8-1.5 2.4 10.9 10.6 12.5 15.7 11.5 1.4-.4 2.7-.9 4-1.5 1.9-1 3.3-2.1 4.3-3.3s1.7-2.7 2.1-4.4c.4-1.7.7-4.5.7-8.6v-1L88 .1h-6z"/><path class="st1" d="M59.1 32.3c-.2-4 0-8.8 0-8.8 0-.8 0-2.2.1-4.3s.2-4.3.4-6.6L60.5.1c-2.6 0-4.7.1-6.2.1-1.3 0-3.4 0-6.5-.1l-.5 11.6c-.1 2.4-.2 4.2-.3 5.4l-.4 4.7c-.1 1.8-.2 3.1-.3 4.1 0 .9-.1 1.7-.1 2.1 0 1.4.2 2.7.5 3.9.3 1.1.7 2 1.3 2.8.5.8 1.3 1.5 2.3 2.3 1.1.8 2.4 1.5 3.9 2.1s3.2 1.1 5.1 1.4c1.7.3 3.5.4 5.3.5-2.5-.9-5.3-4.4-5.5-8.7z"/></svg>