<?xml version="1.0" encoding="utf-8"?>
<!-- Generator: Adobe Illustrator 22.0.1, SVG Export Plug-In . SVG Version: 6.00 Build 0)  -->
<svg version="1.1" id="圖層_1" xmlns="http://www.w3.org/2000/svg" xmlns:xlink="http://www.w3.org/1999/xlink" x="0px" y="0px"
	 viewBox="0 0 100 100" style="enable-background:new 0 0 100 100;" xml:space="preserve">
<style type="text/css">
	.st0{fill:#4B7FC7;}
</style>
<g>
	<g>
		<path class="st0" d="M79.9,22.5v36.3H20.3V22.5H79.9 M80.4,16.5H18.8c-3.2,0-4.5,3-4.5,4.4v39.5c0,2.5,2.3,4.4,4.5,4.4h61.7
			c3.4,0,5.5-2,5.5-4.4V20.9C85.9,19.5,84.6,16.5,80.4,16.5L80.4,16.5z"/>
	</g>
	<path class="st0" d="M64.4,35.6l-13.9-7.8c-0.3-0.1-0.6,0-0.6,0s-13.5,7.6-14,7.9s-0.5,0.6-0.5,0.6s0,1.1,0,1.5s0.5,0.6,0.5,0.6
		h2.3c0,0,0,0.1,0,0.3s0.7,0.6,0.7,0.6h0.7l-0.7,10.5c0,0-1.9,0.4-1.9,1.8s1.6,1.7,1.6,1.7h23.3c0,0,1.6-0.1,1.6-1.7
		c0-1.6-2.1-1.8-2.1-1.8l-0.6-10.5h0.8l0.5-0.5l0-0.5c0,0,2.2,0,2.5,0s0.5-0.5,0.5-0.5s0-0.9,0-1.6S64.4,35.6,64.4,35.6z M55,44.9
		c0,4.2-4.1,4.1-4.1,4.1v1h-1.6v-1c-4.8-0.7-4.3-4.4-4.3-4.4h2.7c0,1.7,1,2.1,2.4,2.1c1.4,0,1.8-0.9,1.8-1.8s-0.8-1.5-2.1-2.1
		s-4.4-1.4-4.4-4.6s4.1-3.8,4.1-3.8v-1.2h1.4v1.2c4.6,1.1,3.9,4.6,3.9,4.6h-2.6c0-2-1.5-2.2-2-2.2s-1.6,0.5-1.6,1.9s2,2,2,2
		s1.1,0.5,3,1.5S55,44.9,55,44.9z"/>
	<path class="st0" d="M90.5,81.1l-6.7-12.2c0,0-0.9-0.5-1.8-0.5H17.4c0,0-0.7,0.1-1.3,0.8S9.3,81.3,9.3,81.3s-0.5,2.1,1.7,2.2
		s78,0,78,0S91.7,83.1,90.5,81.1z M60.4,77.9c0,0-19.6,0-20.9,0s-1.3-1.8-1.3-1.8s0.4-1.8,0.6-2.3s1.1-0.7,1.1-0.7h20.2
		c1,0.2,1.1,0.9,1.1,0.9s0.3,1.2,0.5,2.3S60.4,77.9,60.4,77.9z"/>
</g>
</svg>
