<?xml version="1.0" encoding="utf-8"?>
<!-- Generator: Adobe Illustrator 22.0.1, SVG Export Plug-In . SVG Version: 6.00 Build 0)  -->
<svg version="1.1" id="圖層_1" xmlns="http://www.w3.org/2000/svg" xmlns:xlink="http://www.w3.org/1999/xlink" x="0px" y="0px"
	 width="97px" height="97px" viewBox="0 0 97 97" style="enable-background:new 0 0 97 97;" xml:space="preserve">
<style type="text/css">
	.st0{fill:#FFA406;}
</style>
<g>
	<g>
		<path class="st0" d="M81.5,97H34.4c-8.4,0-15.3-6.8-15.3-15.3V55.4c0-8.4,6.8-15.3,15.3-15.3h47.1c8.4,0,15.3,6.8,15.3,15.3v26.4
			C96.7,90.2,89.9,97,81.5,97z M34.3,48.1c-4,0-7.3,3.3-7.3,7.3v26.4c0,4,3.3,7.3,7.3,7.3h47.1c4,0,7.3-3.3,7.3-7.3V55.4
			c0-4-3.3-7.3-7.3-7.3H34.3z"/>
	</g>
	<path class="st0" d="M13.4,55.4c0-11.6,9.4-20.9,20.9-20.9h43.7L72.2,8.8c-1.3-6.1-7.4-9.9-13.5-8.5L9,11.4
		C3,12.7-0.9,18.8,0.5,24.8l7.1,31.5c0.8,3.4,3,6.2,5.9,7.6v-8.6H13.4z"/>
	<rect x="24.6" y="55.7" class="st0" width="68.2" height="11.6"/>
</g>
</svg>
