<?xml version="1.0" encoding="utf-8"?>
<!-- Generator: Adobe Illustrator 22.0.1, SVG Export Plug-In . SVG Version: 6.00 Build 0)  -->
<svg version="1.1" id="圖層_1" xmlns="http://www.w3.org/2000/svg" xmlns:xlink="http://www.w3.org/1999/xlink" x="0px" y="0px"
	 width="65px" height="50px" viewBox="0 0 65 50" style="enable-background:new 0 0 65 50;" xml:space="preserve">
<style type="text/css">
	.st0{fill:#214571;}
</style>
<g>
	<polygon class="st0" points="10.4,2.9 17.1,2.9 17.1,0 10.4,0 7.5,0 7.5,8.9 10.4,8.9 	"/>
	<polygon class="st0" points="10.4,41.1 7.5,41.1 7.5,50 10.4,50 17.1,50 17.1,47.1 10.4,47.1 	"/>
	<polygon class="st0" points="54.6,8.9 57.5,8.9 57.5,0 54.6,0 47.9,0 47.9,2.9 54.6,2.9 	"/>
	<polygon class="st0" points="54.6,47.1 47.9,47.1 47.9,50 54.6,50 57.5,50 57.5,41.1 54.6,41.1 	"/>
	<rect x="20" y="12.2" class="st0" width="4.8" height="4.8"/>
	<rect x="40.2" y="12.2" class="st0" width="4.8" height="4.8"/>
	<path class="st0" d="M13.2,25.7v-1.8h18.4V5.3H13.1v18.4H0v2.2h13.1v18.3h18.5V25.7H13.2z M17.1,9.3h10.5v10.6H17.1V9.3z
		 M27.6,40.2H17.1V29.7h10.5V40.2z"/>
	<rect x="20" y="32.5" class="st0" width="4.8" height="4.8"/>
	<polygon class="st0" points="43,30.7 43,25.8 39.8,25.8 35.3,25.8 33,25.8 33,34.5 39.8,34.5 39.8,30.7 	"/>
	<rect x="33.1" y="39.1" class="st0" width="5" height="5"/>
	<polygon class="st0" points="52.1,44 52.1,33.1 44.9,33.1 44.9,36.8 41.2,36.8 41.2,44 44.9,44 49.5,44 	"/>
	<path class="st0" d="M51.8,23.7V5.3H33.3v18.6h18.5v2h-4.2v4.3h4.3v-4.3H65v-2.2H51.8z M47.8,19.9H37.3V9.3h10.5V19.9z"/>
</g>
</svg>
