<?xml version="1.0" encoding="utf-8"?>
<!-- Generator: Adobe Illustrator 22.0.1, SVG Export Plug-In . SVG Version: 6.00 Build 0)  -->
<svg version="1.1" id="圖層_2_1_" xmlns="http://www.w3.org/2000/svg" xmlns:xlink="http://www.w3.org/1999/xlink" x="0px"
	 y="0px" width="50px" height="50px" viewBox="0 0 50 50" style="enable-background:new 0 0 50 50;" xml:space="preserve">
<style type="text/css">
	.st0{fill:#214571;}
</style>
<polygon class="st0" points="9.6,0 2.9,0 2.9,0 0,0 0,8.9 2.9,8.9 2.9,2.9 9.6,2.9 "/>
<polygon class="st0" points="9.6,50 2.9,50 2.9,50 0,50 0,41.1 2.9,41.1 2.9,47.1 9.6,47.1 "/>
<polygon class="st0" points="40.4,0 47.1,0 47.1,0 50,0 50,8.9 47.1,8.9 47.1,2.9 40.4,2.9 "/>
<polygon class="st0" points="40.4,50 47.1,50 47.1,50 50,50 50,41.1 47.1,41.1 47.1,47.1 40.4,47.1 "/>
<rect x="5.3" y="22.1" class="st0" width="39.4" height="5.8"/>
</svg>
