<?xml version="1.0" encoding="utf-8"?>
<!-- Generator: Adobe Illustrator 22.0.1, SVG Export Plug-In . SVG Version: 6.00 Build 0)  -->
<svg version="1.1" id="圖層_1" xmlns="http://www.w3.org/2000/svg" xmlns:xlink="http://www.w3.org/1999/xlink" x="0px" y="0px"
	 width="55px" height="50px" viewBox="0 0 55 50" style="enable-background:new 0 0 55 50;" xml:space="preserve">
<style type="text/css">
	.st0{fill:#E3464C;}
</style>
<g>
	<path class="st0" d="M54.3,42.2L32,2.6c-1.9-3.5-7.1-3.5-9,0L0.7,42.2C-1.2,45.7,1.2,50,5.2,50h44.5C53.8,49.8,56.2,45.7,54.3,42.2
		z M5.2,44.8L5.2,44.8L27.5,5.2l22.3,39.6H5.2z"/>
	<path class="st0" d="M27.5,36.3c-0.9,0-1.6,0.3-2.3,0.9c-0.6,0.6-0.9,1.4-0.9,2.3c0,0.9,0.3,1.6,0.9,2.3c0.6,0.6,1.3,0.9,2.2,0.9
		c0.9,0,1.7-0.3,2.3-1c0.6-0.6,0.9-1.4,0.9-2.2c0-0.9-0.3-1.7-0.9-2.3C29.1,36.6,28.4,36.3,27.5,36.3z"/>
	<path class="st0" d="M25,14.7c-0.6,0.7-0.9,1.8-0.9,3.2c0,0.3,0.1,1,0.2,2.1c0.2,1.1,0.4,2.5,0.7,4.2c0.3,1.5,0.5,3,0.7,4.3
		c0.2,1.4,0.4,2.8,0.6,4.2c0,0.3,0.1,0.5,0.4,0.8c0.2,0.2,0.4,0.4,0.7,0.4c0.3,0,0.5,0,0.7-0.2c0.2-0.2,0.4-0.5,0.5-1
		c0.2-1.6,0.4-3,0.5-4.3c0.2-1.3,0.4-2.7,0.7-4.2c0.3-1.8,0.6-3.2,0.7-4.2s0.3-1.7,0.3-2.1c0-1.4-0.3-2.5-0.9-3.2
		c-0.6-0.8-1.4-1.1-2.4-1.1C26.4,13.6,25.6,14,25,14.7z"/>
</g>
</svg>
