<?xml version="1.0" encoding="utf-8"?>
<!-- Generator: Adobe Illustrator 26.0.3, SVG Export Plug-In . SVG Version: 6.00 Build 0)  -->
<svg version="1.1" id="圖層_1" xmlns="http://www.w3.org/2000/svg" xmlns:xlink="http://www.w3.org/1999/xlink" x="0px" y="0px"
	 width="50px" height="50px" viewBox="0 0 50 50" style="enable-background:new 0 0 50 50;" xml:space="preserve">
<style type="text/css">
	.st0{fill:#2782D7;}
</style>
<path class="st0" d="M42.4,9c0,0-30.1,0-34.8,0c-3.2,0-5.1,3.2-5.1,5.3v21.8c0,2.7,2.1,4.9,4.7,4.9h35.6c2.6,0,4.7-2.2,4.7-4.9v-22
	C47.5,11.5,44.9,9,42.4,9z M7.6,11.5h34.8c1.2,0,2.6,1.4,2.6,2.6v2.9H5v-2.7C5,13.5,6,11.5,7.6,11.5z M42.8,38.5H7.2
	C6,38.5,5,37.4,5,36.1V22.2h40v13.9C45,37.4,44,38.5,42.8,38.5z"/>
</svg>
