<?xml version="1.0" encoding="utf-8"?>
<!-- Generator: Adobe Illustrator 26.0.3, SVG Export Plug-In . SVG Version: 6.00 Build 0)  -->
<svg version="1.1" id="圖層_1" xmlns="http://www.w3.org/2000/svg" xmlns:xlink="http://www.w3.org/1999/xlink" x="0px" y="0px"
	 width="50px" height="50px" viewBox="0 0 50 50" style="enable-background:new 0 0 50 50;" xml:space="preserve">
<style type="text/css">
	.st0{fill:#2782D7;}
	.st1{fill:#FFFFFF;}
</style>
<g>
	<path class="st0" d="M42.6,0.6H7.4c-2.8,0-4.9,1.9-4.9,4.7v39.2c0,2.8,2.1,4.9,4.9,4.9h35.1c2.8,0,4.9-2.1,4.9-4.9V5.3
		C47.3,2.5,45.1,0.6,42.6,0.6z M44.7,44.5c0,1.3-1.1,2.1-2.1,2.1H7.4c-1.3,0-2.1-1.1-2.1-2.1V5.3c0-1.3,1.1-2.1,2.1-2.1h35.1
		c1.3,0,2.1,1.1,2.1,2.1V44.5z"/>
	<rect x="13.2" y="13.4" class="st0" width="24" height="2.8"/>
	<rect x="13.2" y="23.5" class="st0" width="24" height="2.8"/>
	<rect x="13.2" y="33.8" class="st0" width="14.4" height="2.8"/>
</g>
<!-- <g>
	<path class="st1" d="M42.6,50.6H7.4c-2.8,0-4.9,1.9-4.9,4.7v39.2c0,2.8,2.1,4.9,4.9,4.9h35.1c2.8,0,4.9-2.1,4.9-4.9V55.3
		C47.3,52.5,45.1,50.6,42.6,50.6z M44.7,94.5c0,1.3-1.1,2.1-2.1,2.1H7.4c-1.3,0-2.1-1.1-2.1-2.1V55.3c0-1.3,1.1-2.1,2.1-2.1h35.1
		c1.3,0,2.1,1.1,2.1,2.1V94.5z"/>
	<rect x="13.2" y="63.4" class="st1" width="24" height="2.8"/>
	<rect x="13.2" y="73.5" class="st1" width="24" height="2.8"/>
	<rect x="13.2" y="83.8" class="st1" width="14.4" height="2.8"/>
</g> --> -->
</svg>
