<?xml version="1.0" encoding="utf-8"?>
<!-- Generator: Adobe Illustrator 26.0.3, SVG Export Plug-In . SVG Version: 6.00 Build 0)  -->
<svg version="1.1" id="圖層_1" xmlns="http://www.w3.org/2000/svg" xmlns:xlink="http://www.w3.org/1999/xlink" x="0px" y="0px"
	 width="50px" height="50px" viewBox="0 0 50 50" style="enable-background:new 0 0 50 50;" xml:space="preserve">
<style type="text/css">
	.st0{display:none;fill:#FFFFFF;}
	.st1{fill:#2782D7;}
</style>
<rect x="-0.5" y="20.2" class="st0" width="26" height="18.3"/>
<g>
	<path class="st1" d="M25.2,6.6c-6.4,0-11.7,5.2-11.7,11.7c0,1.8,0.4,3.6,1.2,5.3c0.3,0.5,0.8,0.8,1.3,0.8c0.2,0,0.5-0.1,0.7-0.2
		c0.7-0.4,1-1.3,0.7-2c-0.6-1.2-0.9-2.5-0.9-3.9c0-4.8,3.9-8.7,8.7-8.7c0.8,0,1.5-0.7,1.5-1.5S26.1,6.6,25.2,6.6z"/>
	<path class="st1" d="M43.2,15.3C41.4,4.7,30.9-2.1,20.5,0.6C11.2,2.9,5.2,12.1,6.8,21.4c1,6,4.3,10.4,9.6,13.4
		c0.4,0.3,0.6,0.5,0.6,1c0,1.7,0,8.3,0,10c0,2.1,1.7,4,3.8,4.1c2.9,0.1,5.7,0,8.6,0c0.1,0,0.3,0,0.4-0.1c2-0.5,3.2-2.2,3.2-4.5
		c0-3.2,0-6.3,0-9.5c0-0.6,0.2-0.9,0.7-1.2C40.8,30.9,44.6,23,43.2,15.3z M29.9,46c0,0.3-0.6,0.9-1,0.9c-2.6,0.1-5.2,0.1-7.8,0
		c-0.6,0-1-0.4-1.1-1.1c0-1.4,0-2.9,0-4.4c3.4,0,6.6,0,10,0C30,43,30,44.5,29.9,46z M31.4,32.5C30.4,33,30,33.6,30,34.7
		c0.1,1.2,0,2.4,0,3.7c-3.4,0-6.7,0-10,0c0-1.3,0-2.6,0-3.9c0-0.9-0.4-1.5-1.2-1.9c-5.2-2.5-8.4-6.6-9.1-12.3
		C8.8,13.9,12,7.9,17.7,4.8c7.3-4,16.8-1.2,20.9,6.3C42.8,18.9,39.6,28.8,31.4,32.5z"/>
</g>
</svg>
